<?xml version="1.0" encoding="utf-8"?>
<svg viewBox="-1040.2025 -175.9524 3193.1613 851.6262" width="3193.161" height="851.626" xmlns="http://www.w3.org/2000/svg">
  <path d="M -770.014 -33.144 C -770.014 -33.144 -895.644 -36.688 -918.605 -7.631 C -918.605 -7.631 -945.428 47.024 -945.76 93.853 C -945.76 93.853 -954.462 150.382 -915.842 170.048 C -915.842 170.048 -887.728 198.383 -809.012 196.21 C -809.012 196.21 -730.214 199.356 -698.634 176.558 C -698.634 176.558 -672.153 168.732 -672.914 119.788 C -672.914 119.788 -679.855 15.596 -704.736 -10.655 C -704.746 -10.655 -717.895 -34.941 -770.014 -33.144 Z M -744.863 147.408 C -769.331 147.754 -800.089 154.57 -800.089 154.57 L -813.884 156.895 L -827.746 154.961 C -852.213 155.307 -862.919 151.198 -862.919 151.198 C -889.566 148.384 -898.257 136.796 -898.257 136.796 C -925.499 95.677 -896.507 44.192 -896.507 44.192 C -889.504 15.36 -870.339 16.149 -870.339 16.149 C -866.196 8.64 -793.886 5.487 -793.886 5.487 C -747.104 2.696 -730.748 28.007 -730.748 28.007 C -717.748 42.725 -711.121 126.699 -711.121 126.699 C -716.176 143.812 -744.863 147.408 -744.863 147.408 Z M -474.605 280.87 C -474.605 280.87 -490.999 116.156 -520.619 59.109 C -520.619 59.109 -546.311 -19.275 -604.802 -16.318 L -611.314 -24.737 C -611.314 -24.737 -645.856 -124.278 -732.401 -146.467 C -732.401 -146.467 -824.614 -190.928 -881.539 -156.069 C -881.539 -156.069 -950.305 -129.554 -1001.581 62.72 C -1001.581 62.72 -1032.533 194.05 -1028.847 294.038 C -1028.847 294.038 -1034.858 454.818 -1023.403 575.968 L -1021.615 622.767 C -1021.615 622.767 -1010.595 647.084 -987.171 647.823 L -982.961 644.573 L -861.647 643.918 C -861.647 643.918 -844.628 643.677 -843.773 629.833 L -844.022 613.875 C -844.022 613.875 -840.898 609.571 -843.392 586.194 L -843.657 569.176 C -843.657 569.176 -840.241 514.852 -843.033 472.327 C -843.033 472.327 -839.087 452.05 -813.61 448.499 C -813.61 448.499 -775.386 442.638 -765.668 452.082 C -765.668 452.082 -751.773 456.146 -747.199 476.293 L -737.913 594.283 C -737.913 594.283 -744.8 630.564 -723.439 635.583 C -723.439 635.583 -711.476 652.435 -696.809 637.336 L -544.648 636.245 C -544.648 636.245 -524.314 643.408 -523.601 621.046 L -528.39 587.06 L -543.045 397.839 C -543.025 397.828 -473.215 370.239 -474.605 280.87 Z M -571.996 587.667 L -579.396 590.962 L -680.459 593.451 C -698.597 590.517 -692.539 569.149 -692.539 569.149 L -695.347 525.555 C -697.019 486.204 -702.719 461.803 -702.719 461.803 L -706.389 430.991 C -717.706 387.517 -754.827 395.493 -754.827 395.493 C -815.603 387.841 -863.075 415.115 -863.075 415.115 C -892.59 433.624 -887.719 472.929 -887.719 472.929 C -893.86 488.978 -888.299 503.8 -888.299 503.8 C -897.629 519.894 -888.813 538.921 -888.813 538.921 L -889.194 582.561 C -889.973 600.664 -907.1 594.515 -907.1 594.515 L -970.917 596.478 C -990.032 598.878 -986.213 571.152 -986.213 571.152 L -988.794 337.065 C -988.285 232.768 -967.801 113.287 -967.801 113.287 C -951.797 -21.023 -878.589 -104.006 -878.589 -104.006 C -849.43 -144.852 -760.524 -107.806 -760.524 -107.806 C -655.741 -76.294 -637.191 21.344 -637.191 21.344 C -614.854 89.134 -590.432 290.989 -590.432 290.989 C -587.027 304.772 -572.119 579.128 -572.119 579.128 L -571.986 587.667 L -571.996 587.667 Z M -547.091 341.49 C -547.091 341.49 -563.273 167.903 -571.712 126.868 C -571.712 126.868 -590.075 41.279 -595.122 35.68 C -595.122 35.68 -589.631 23.541 -578.749 38.999 C -578.749 38.999 -537.429 95.88 -524.36 206.377 C -524.36 206.377 -515.501 274.358 -515.171 295.635 C -515.171 295.635 -529.11 356.848 -547.091 341.49 Z" style="" transform="matrix(0.999709, 0.02411, -0.02411, 0.999709, 5.539854, 18.253878)"/>
  <path d="M -469.418 628.047 C -469.418 628.047 -475.499 647.285 -460.511 653.463 C -460.511 653.463 -435.928 660.566 -425.487 647.648 L -421.575 625.241 L -414.987 569.812 L -367.981 239.245 L -337.475 11.081 C -337.475 11.081 -332.388 -3.893 -327.863 13.075 L -266.836 310.182 L -217.716 594.685 L -206.415 637.09 C -206.415 637.09 -201.974 648.737 -184.955 648.496 L -170.04 649.346 C -170.04 649.346 -163.667 648.195 -157.52 633.208 L -139.701 478.651 L -112.567 238.823 L -79.07 -2.154 C -79.07 -2.154 -75.373 -38.39 -68.712 -20.392 L -51.597 121.97 L -21.69 334.388 L 0.437 525.624 L 17.006 632.87 C 17.006 632.87 18.265 645.623 38.532 648.527 C 38.532 648.527 55.617 652.546 60.715 637.573 L 47.103 515.383 L -0.996 159.558 L -37.954 -95.324 L -43.952 -138.874 C -43.952 -138.874 -56.091 -166.365 -78.412 -164.989 C -78.412 -164.989 -98.63 -164.703 -102.334 -129.538 L -138.848 123.194 L -181.61 452.631 L -183.294 481.387 C -183.294 481.387 -186.991 517.623 -193.121 465.565 L -235.09 229.925 L -294.551 -35.281 C -294.551 -35.281 -294.633 -108.707 -319.448 -130.708 C -319.448 -130.708 -320.011 -166.884 -354.885 -151.489 C -354.885 -151.489 -364.233 -136.455 -365.011 -118.353 L -409.881 213.235 L -462.868 569.419 L -469.418 628.047 Z" style="" transform="matrix(0.999709, 0.02411, -0.02411, 0.999709, 5.865259, 5.159924)"/>
  <g style="" transform="matrix(0.9999510049819945, 0.009974000975489616, -0.008562000468373297, 0.9999629855155944, -403.60285626658333, -761.5832136149165)">
    <path d="M748.79,796.6c0,0-24.47-135.14-77.68-178.77c0,0-55.33-46.82-101.09-10.64c0,0-52.14,54.27-58.52,167.06&#10;&#9;&#9;c0,0-13.83,197.92-8.51,238.35c0,0,1.06,213.88,38.31,305.39c0,0,14.9,84.06,93.64,92.57c0,0,47.88,5.32,74.48-79.81&#10;&#9;&#9;c0,0,39.37-141.52,46.82-273.47C756.24,1057.3,763.68,855.12,748.79,796.6z M706.22,1086.03c0,0-17.03,166-28.73,192.6&#10;&#9;&#9;c0,0-11.7,69.17-48.95,73.42c0,0-37.24,11.7-58.52-113.86c0,0-26.6-175.57-17.03-330.93c9.58-155.36,12.77-173.45,12.77-173.45&#10;&#9;&#9;s11.71-79.81,37.24-85.13c0,0,35.11-11.7,46.82,17.03c0,0,50.01,83,51.07,150.04C700.9,815.75,718.99,904.07,706.22,1086.03z"/>
  </g>
  <path d="M 401.949 626.302 C 401.949 626.302 399.024 643.365 402.33 650.769 C 402.33 650.769 401.352 656.104 418.42 659.053 C 418.42 659.053 441.911 664.041 451.308 652.207 L 452.219 642.613 C 452.219 642.613 444.451 485.227 442.04 399.063 C 439.64 312.898 435.686 58.609 435.686 58.609 L 434.18 -38.209 C 434.18 -38.209 435.008 -53.122 441.778 -28.736 L 545.648 355.034 L 575.235 478.058 L 613.529 613.73 C 613.529 613.73 620.537 654.074 636.555 657.038 L 663.12 654.532 C 663.12 654.532 668.538 660.836 672.5 641.629 L 677.682 495.761 C 677.682 495.761 685.442 310.483 677.723 224.393 C 677.723 224.393 670.501 34.007 670.021 3.15 C 670.021 3.15 668.797 -75.58 671.308 -119.25 C 671.308 -119.25 682.488 -153.461 646.245 -157.209 C 646.245 -157.209 620.691 -157.908 623.714 -100.485 L 625.601 20.81 L 633.595 123.927 L 636.095 216.471 L 638.217 489.938 C 638.217 489.938 631.397 530.479 623.12 477.38 L 581.14 309.827 L 523.284 79.713 L 466.157 -103.588 C 466.157 -103.588 455.751 -156.646 416.517 -147.58 C 416.517 -147.58 389.92 -147.204 387.326 -108.854 L 390.37 86.913 L 394.689 364.609 L 398.903 498.633 C 398.903 498.633 396.756 565.71 401.254 581.608 L 401.949 626.302 Z" style="" transform="matrix(0.999709, 0.02411, -0.02411, 0.999709, 6.219534, -12.863183)"/>
  <path d="M 932.705 -137.509 C 932.705 -137.509 956.461 -115.493 930.244 -90.649 C 930.244 -90.649 934.586 -85.39 888.648 -96.452 C 888.648 -96.452 846.937 -109.694 824.142 -69.997 C 824.142 -69.997 774.252 6.266 770.825 128.696 C 770.825 128.696 761.367 273.564 771.425 372.382 C 771.425 372.382 774.718 515.999 811.755 570.811 C 811.755 570.811 832.784 622.659 902.494 588.68 C 902.494 588.68 932.297 589.319 942.551 427.418 L 941.973 322.076 C 941.973 322.076 939.595 306.148 963.973 299.412 L 1059.717 296.998 C 1059.717 296.998 1096.92 294.342 1080.564 337.138 C 1080.564 337.138 1075.41 347.851 1039.349 355.812 L 990.421 357.564 C 990.421 357.564 997.146 516.035 969.428 581.343 C 969.428 581.343 940.789 656.235 871.735 663.602 C 871.735 663.602 790.873 664.746 763.002 583.202 C 763.002 583.202 724.541 504.998 724.205 346.437 C 724.205 346.437 718.253 168.803 730.426 62.211 C 730.426 62.211 741.557 -43.297 788.423 -108.876 C 788.423 -108.876 810.026 -157.066 888.858 -151.8 C 888.848 -151.79 922.928 -150.142 932.705 -137.509 Z" style="" transform="matrix(0.999709, 0.02411, -0.02411, 0.999709, 6.405829, -21.699601)"/>
  <path d="M 1429.722 -59.542 C 1429.722 -59.542 1424.656 -111.976 1430.083 -127.654 C 1430.083 -127.654 1449.367 -164.82 1471.219 -128.236 L 1479.921 66.031 C 1479.921 66.031 1507.957 409.008 1533.487 499.466 C 1533.487 499.466 1560.657 604.082 1599.086 612.05 C 1599.086 612.05 1649.094 634.045 1680.485 554.143 C 1680.485 554.143 1706.361 484.25 1719.136 302.452 L 1722.176 41.333 C 1722.176 41.333 1720.882 -133.176 1737.834 -137.676 C 1737.834 -137.676 1761.731 -152.205 1767.952 -116.82 L 1767.407 30.753 C 1767.407 30.753 1762.516 263.525 1764.521 301.81 C 1764.521 301.81 1753.62 513.385 1716.449 586.278 C 1716.449 586.278 1693.92 688.758 1575.664 657.796 C 1575.664 657.796 1490.013 624.953 1469.818 420.919 C 1469.818 420.919 1440.287 164.511 1434.925 93.64 L 1429.722 -59.542 Z" style="" transform="matrix(0.999709, 0.02411, -0.02411, 0.999709, 6.667292, -38.584061)"/>
  <path d="M 2027.216 -135.639 C 2027.216 -135.639 2102.818 -109.746 2093.594 -64.211 C 2093.594 -64.211 2074.222 -32.724 2052.591 -55.12 C 2052.591 -55.12 2019.17 -105.733 1935.733 -87.521 C 1935.733 -87.521 1884.967 -66.941 1866.455 19.879 C 1866.455 19.879 1831.311 132.467 1928.774 194.945 C 1928.774 194.945 2114.52 277.457 2140.733 411.88 C 2140.733 411.88 2170.426 587.407 2023.962 659.005 C 2023.962 659.005 1878.817 723.495 1829.487 562.425 C 1829.487 562.425 1798.639 403.946 1823.514 361.02 C 1823.514 361.02 1850.052 333.682 1860.754 383.196 C 1860.754 383.196 1840.858 563.675 1918.166 607.986 C 1918.166 607.986 1996.983 657.957 2070.609 556.166 C 2070.609 556.166 2145.247 428.828 2048.861 343.632 C 2048.861 343.632 1991.124 280.592 1925.451 254.568 C 1925.451 254.568 1797.068 210.979 1818.516 38.989 C 1818.516 38.989 1828.056 -77.498 1903.852 -131.075 C 1903.842 -131.055 1933.166 -161.262 2027.216 -135.639 Z" style="" transform="matrix(0.999709, 0.02411, -0.02411, 0.999709, 6.859477, -47.560777)"/>
</svg>