<?xml version="1.0" encoding="utf-8"?>
<!-- Generator: Adobe Illustrator 26.0.3, SVG Export Plug-In . SVG Version: 6.00 Build 0)  -->
<svg version="1.0" id="katman_1" xmlns="http://www.w3.org/2000/svg" xmlns:xlink="http://www.w3.org/1999/xlink" x="0px" y="0px"
	 viewBox="0 0 779.1 565.2" style="enable-background:new 0 0 779.1 565.2;" xml:space="preserve">
<style type="text/css">
	.st0{fill:#1D1D1B;}
</style>
<path class="st0" d="M230.2,427.7c-34.3-0.3-33.6-0.8-33.7,0.8c-0.2,2.2,4.2,0.5,5.2,4.1l0,0c0.1,3.2-0.2,43.9-0.2,46.4
	c0,0.3-0.3,1.8-2.1,2.7c-0.5,0.3-0.8,0.8-0.6,1.4c0.1,0.5,0.6,0.9,1.2,0.9h0.3c5.3,0,12.4,0.1,16.5,0.9c2.9,0.5,5.7,0.8,8.3,0.8
	c0,0,0,0,0,0c20.7,0,31.6-15.4,31.7-30.7C256.9,442,248.6,427.9,230.2,427.7z M212.1,432.4c36.5-2.3,37.1,24.6,31.6,37.8
	c-2.9,6.9-13,11-21,11c-5,0-8.7-1.5-10.3-4.3L212.1,432.4z"/>
<path class="st0" d="M278.6,456.3c0,19.2,16.1,29.3,32.1,29.3c15.4,0,31.9-10.7,31.9-30.6C342.6,417,278.6,416,278.6,456.3z
	 M290.1,456.2c0-14.1,4.2-25.4,18.7-25.4c11.4,0,21.9,11.5,21.9,24.1c0.2,11.3-2.3,25.1-16,26.4
	C300.5,481.2,292.2,472.7,290.1,456.2L290.1,456.2z"/>
<path class="st0" d="M411.8,426.9c-1.3,0.4-2.8,0.7-3.8,0.7c-1,0-38.7-0.1-41-0.1c-1.6-0.8-4-1.8-4.4-0.1l-1.6,6.9
	c-0.1,0.6,0.2,1.2,0.7,1.4c0.6,0.2,1.2,0,1.5-0.5c0.7-1,1.7-1.8,3.1-2.3c3.6-0.1,13.4-0.2,15.6-0.2l-0.2,46.6c0,0.1-0.1,1.7-1.6,2.6
	c-1.1,0.6-0.6,2.3,0.7,2.3c0,0,13.4-0.1,13.4-0.1c1.3,0,1.7-1.8,0.6-2.3c-1.1-0.5-1.7-1.3-1.8-2.4c-0.1-2.2-0.4-39.1-0.5-46.7
	l13.7,0.3c0.1,0,3,0.2,4,3c0.2,0.6,0.8,0.9,1.4,0.8c1.3-0.2,1.1-1.1,1.3-6.9c0.3-0.6,0.5-1.5,0.4-2.1
	C413.3,427.2,412.5,426.7,411.8,426.9z"/>
<path class="st0" d="M488.3,467.1c-3.4-0.1-10.4-0.1-11.9-0.1c0-0.1-16.9-40.7-16.9-40.7c-0.5-1-1.9-1-2.3,0l-22,52.7
	c0,0-1,1.9-3.4,3c-1.2,0.6-0.8,2.3,0.5,2.3c0.1,0,10,0,10,0c1.4,0,1.7-1.9,0.4-2.4c-0.7-0.3-1-0.8-0.8-1.6c0.7-2.4,2.6-7.5,3-8.7
	l21.9,0.1l4.3,10c0,0,0.1,0.2-0.1,0.4c-0.7,0.8-0.2,2,0.9,2.1c0.1,0,12.5,0.2,12.5,0.2c0.7,0,1.3-0.6,1.3-1.2c0-0.5-0.4-1-0.9-1.2
	c-1.6-0.8-2.3-1.5-6.6-10.3c3.7,0.1,4.5-1.6,10-2.3c0.7-0.1,1.1-0.6,1.1-1.3C489.5,467.6,488.9,467.1,488.3,467.1z M456.3,443.1
	l8.8,23.9l-18.4,0.2L456.3,443.1z"/>
<path class="st0" d="M566.6,471.5c-1.2,2.6-2.7,5.1-6.4,5.3c-1.9,0.1-12.3,0.5-18.8,0.4c39-29,28.6-50.9,5.4-50.9
	c-5.1,0-10.2,1.2-14.1,3.3c-0.4,0.2-0.6,0.6-0.6,1c-0.1,1.3,0.2,4,0.8,7.9c0.1,0.6,0.5,1,1.1,1c0.6,0,1.1-0.3,1.3-0.8
	c2.2-6.1,6.8-8.3,10.2-8.3c5,0,10.2,4.2,10.5,12.1c0.7,17.7-21.4,34.4-26.3,39c-0.8,0.7-1.5,1.5-0.8,2.3c0,1.5,2,1.7,2.4,0.5
	c4.2,0,27.3-0.2,31.6-0.1c3.1,0.2,4.6-1.5,4.7-3.5l1.5-8.4C569.2,470.8,567.2,470.2,566.6,471.5z"/>
<path class="st0" d="M546.9,145.8c-1.3-59.6-1.4-46.7-0.1-65.3c0.1-1.1-0.8-2.1-1.9-2.1c-91.1-6.1-94.5-6.8-101.6-6.8
	c-124.2,0-59-2-224.8,7.5c-1.1,0.1-2,1-1.9,2.1c10.7,199.9,10.3,167.3,4.8,300.5c0,1,0.6,1.8,1.6,2c12.4,2.9,10.2,1.7,39.2,1.8
	c0,0,54.3-5.8,54.3-5.8c0.3,0,75,12,75.2,12c0.1,0,0.1,0,0.2,0c87.5-7.2,62.5-5.4,118.9-8.5l33.2,6.5c1.3,0.3,2.5-0.7,2.5-2
	C545.6,322.7,546.9,145.8,546.9,145.8z M412.2,141c0.2-0.1,0.6-0.1,1-0.3l23.6-5.2c12.1-3,13.9-3.7,24.2-8.4
	c4.8,1.6,17.9,8.7,21.2,12.7c2.2,2.7,2,3.3,1.4,6.2c-0.1,0.6-0.3,1.2-0.4,1.9c0,0,0,0.1,0,0.2l-5.2,39.6c-5.1,0.2-5.6-0.2-7-1.5
	c-0.6-0.5-1.3-1.2-2.6-2c-7.8-5.1-33.4-23.5-41.4-29.9l-15.9-12.4l0.1-0.1c0.2-0.2,0.3-0.4,0.4-0.6
	C411.7,141.1,412.1,141.1,412.2,141z M449,340.4c-0.5-0.5-198.4-205-198.5-205.3l17.3-12.9l241.6,156c-2,5.6-2.8,12-4,17.3
	c-4.2,18.8-9.7,27-18.2,44.8C475,340.8,449.9,340.7,449,340.4z M269,285.1c2.2-5.2,5.3-13.6,7.9-17.8c12.6,7.7,62,56.1,66.3,62.6
	c-2.4,0.9-12.6,2.3-29.6,8.9c-10.8,4.2-20.9,8.1-30.7,4.9c-1-0.3-3.6-2.5-7.5-5.7c-7.1-5.9-13.5-10.2-17.2-12.4
	C251.9,321.9,252.9,322.7,269,285.1z"/>
<path class="st0" d="M241.8,285.5c-1.5-77.9,0.2-35.5-9-207.2l-14.3,0.8c-1.1,0.1-2,1-1.9,2.1l7.6,142.6
	c1.5,76.2,1.9,42.8-2.8,157.9c0,1,0.6,1.8,1.6,2c7,1.6,9.9,2,14.8,2C237.6,385.2,237.4,390.9,241.8,285.5z"/>
<path class="st0" d="M353.4,334.2c0,0,8.4-2.8,1.5-10.2c-28.1-30.6-45.2-41.6-61.5-59c-6.8-7.2-16.6,2.2-16.6,2.2
	c63.6,55.1,50.8,47.1,62.1,57.7c1.5,1.4,2.7,2.5,4.2,4.9c-0.3,0.1-1.6,0.4-3.4,0.9c-26.5,6.5-30.4,10.9-42.2,13.4
	c11,8.8,30.5-1.9,44.3-6.6C345.2,336.4,349.6,335.2,353.4,334.2z"/>
<path class="st0" d="M521.5,262c0,0-231-143.6-231-143.6c-7.7-4.8-16.1-2.5-22.7,3.9l241.6,156c-2,5.6-2.8,12-4,17.3
	c-4.2,18.8-9.7,27-18.2,44.8c0,0,21.9,4.1,28.6-10.3c15.7-32.5,12-38.6,15.8-48.9C531.1,275.3,531.9,268.5,521.5,262z"/>
<path class="st0" d="M483.2,148c0,0,0,0.1,0,0.2l-5.2,39.6c0,0,20.5,12.4,23.1-8c0,0,0,0,0,0l4.2-33.5c0-0.1,0-0.1,0-0.2
	c0.2-0.8,0.3-1.4,0.5-2c0.7-2.9,0.9-3.6-1.4-6.3c-2.4-2.9-12.9-10.5-20.8-15.4c-7.4-4.9-16.3,1-16.3,1c-2.2,1.6-4.2,3.1-6.3,3.7
	c5.4,2.8,19.1,10.1,21.2,12.7c2.2,2.7,2,3.3,1.4,6.2C483.5,146.6,483.4,147.2,483.2,148z"/>
</svg>
