<?xml version="1.0" encoding="UTF-8" standalone="no"?>
<svg
   fill="#ffffff"
   viewBox="0 0 1719.09 324"
   version="1.1"
   id="svg4"
   sodipodi:docname="Fall Guys.svg"
   width="1719.09"
   height="324"
   xmlns:inkscape="http://www.inkscape.org/namespaces/inkscape"
   xmlns:sodipodi="http://sodipodi.sourceforge.net/DTD/sodipodi-0.dtd"
   xmlns="http://www.w3.org/2000/svg"
   xmlns:svg="http://www.w3.org/2000/svg">
  <defs
     id="defs8" />
  <sodipodi:namedview
     id="namedview6"
     pagecolor="#ffffff"
     bordercolor="#000000"
     borderopacity="0.25"
     inkscape:showpageshadow="2"
     inkscape:pageopacity="0.0"
     inkscape:pagecheckerboard="0"
     inkscape:deskcolor="#d1d1d1"
     showgrid="false" />
  <path
     clip-rule="evenodd"
     d="m 990.59401,127.8 c 6.282,0 10.96199,1.71 13.94999,5.076 2.826,3.204 4.212,8.01 4.212,14.706 l 0.108,138.258 c 0,14.238 -10.43999,24.156 -31.08599,29.466 -17.37,4.482 -38.448,6.984 -64.422,7.686 a 165.726,165.726 0 0 1 -4.23,0.054 c -23.292,0 -46.17,-4.284 -66.168,-12.42 -17.568,-7.11 -31.896,-16.776 -40.356,-27.18 -21.186,-25.992 -31.95,-66.924 -31.986,-121.644 -0.036,-25.128 3.168,-47.988 9.486,-67.95 6.336,-19.944 15.804,-37.116 28.17,-51.03 a 120.672,120.672 0 0 1 45.666,-31.914 c 17.928,-7.2 38.466,-10.872 61.02,-10.908 11.7,0 23.742,2.304 38.178,5.76 14.328,3.42 26.334,10.26 35.118,15.3 l 1.818,1.008 c 10.90799,6.21 18.23399,14.904 18.23399,21.672 0,4.86 -6.03,21.528 -8.51399,27.27 -2.124,4.932 -9.414,21.456 -13.878,27.18 -3.906,4.986 -9.072,7.974 -13.842,7.992 h -0.36 l -0.342,-0.054 c -1.674,-0.216 -4.806,-1.368 -9.252,-3.42 a 105.21,105.21 0 0 1 -7.632,-4.266 l -0.576,-0.342 -0.054,-0.036 c -5.58,-3.312 -13.176,-7.812 -18.144,-9.054 l -3.366,-0.9 -0.126,-0.018 h -0.09 c -5.436,-1.476 -11.052,-2.97 -17.55,-2.97 -2.538,0 -5.076,0.252 -7.56,0.72 -13.194,2.52 -31.05,11.556 -38.16,23.328 l -0.036,0.036 c -9.612,15.93 -14.004,23.22 -14.004,57.132 0,23.112 5.706,41.94 16.488,54.432 10.044,11.664 24.516,17.82 41.832,17.82 9.324,0 15.57,-0.864 24.354,-2.646 l -0.036,-30.186 -28.17,0.036 c -3.6,0 -8.496,-1.152 -11.304,-6.606 -1.98,-3.834 -2.952,-9.594 -2.952,-17.622 l -0.018,-29.43 c 0,-8.028 0.936,-13.788 2.916,-17.604 2.808,-5.472 7.686,-6.642 11.304,-6.642 z M 1186.398,19.71 c 0,-7.326 4.41,-16.056 25.524,-16.074 L 1245.636,3.6 c 21.096,0 25.524,8.712 25.542,16.02 l 0.162,194.274 c 0.018,31.266 -12.078,60.012 -34.092,80.946 -18.972,18.072 -51.696,28.458 -89.766,28.512 h -0.234 c -37.944,0 -70.596,-10.332 -89.586,-28.314 -22.032,-20.88 -34.182,-49.608 -34.2,-80.892 l -0.18,-194.256 c 0,-7.326 4.428,-16.074 25.524,-16.092 l 34.092,-0.018 c 21.114,0 25.56,8.712 25.56,16.02 l 0.144,167.76 c 0.018,16.272 4.014,27.9 12.582,36.576 a 36.594,36.594 0 0 0 26.208,11.304 c 8.91,0 17.64,-0.738 26.46,-9.63 8.46,-8.496 12.708,-21.384 12.708,-38.34 z m 354.744,6.318 0.072,-0.144 c 2.43,-4.572 3.654,-8.478 3.654,-11.628 0,-1.512 -0.594,-5.256 -5.994,-7.758 -4.302,-1.998 -11.07,-2.97 -20.664,-2.97 h -39.168 c -13.68,0.018 -21.942,3.15 -25.308,9.576 l -38.916,69.192 -38.736,-69.192 c -3.294,-6.228 -11.79,-9.396 -25.254,-9.396 l -41.868,0.036 c -9.756,0 -16.614,0.99 -20.97,2.988 -5.472,2.52 -6.066,6.3 -6.066,7.776 0,2.61 1.314,6.354 3.96,11.484 l 0.072,0.108 0.054,0.108 80.28,138.24 0.108,141.498 c 0,7.254 4.428,15.912 25.416,15.912 l 43.992,-0.018 c 7.632,0 13.374,-1.08 17.568,-3.294 5.112,-2.7 7.92,-7.2 7.92,-12.672 l -0.126,-140.22 z m 140.148,114.12 c 10.188,6.876 19.062,16.74 26.37,29.376 7.56,13.032 11.412,29.52 11.43,49.014 0,23.31 -4.536,42.93 -13.518,58.284 -9.306,15.912 -27.54,27.198 -41.184,33.894 -14.04,6.858 -31.68,7.812 -47.07,7.83 h -0.27 c -17.712,0 -32.508,-1.944 -46.584,-6.138 -14.652,-4.356 -18.738,-7.704 -26.82,-14.346 -9.9,-7.65 -14.94,-16.326 -14.94,-25.74 0,-6.156 1.692,-12.816 5.202,-20.394 3.096,-6.696 6.84,-12.726 11.124,-17.91 3.852,-4.662 9.9,-10.836 17.946,-10.854 3.924,0 8.082,1.692 15.84,6.444 7.164,4.05 13.68,7.2 19.35,9.432 4.896,1.908 10.908,2.88 17.856,2.88 7.236,0 13.302,-1.548 18,-4.572 1.944,-1.224 4.158,-3.636 4.14,-11.376 0,-4.752 -1.368,-7.92 -4.572,-10.548 -5.328,-4.356 -14.49,-9.522 -27.252,-15.318 l -0.144,-0.072 -17.1,-8.388 -0.072,-0.036 -0.09,-0.054 c -16.686,-8.946 -30.06,-20.394 -39.816,-33.984 -10.26,-14.328 -15.48,-34.326 -15.498,-59.436 -0.018,-21.096 4.752,-39.168 14.184,-53.694 a 85.086,85.086 0 0 1 36.72,-31.896 112.644,112.644 0 0 1 46.584,-9.846 h 0.18 c 13.194,0 25.416,1.584 36.324,4.68 11.592,3.312 20.664,7.668 27.738,13.32 l 0.054,0.054 c 8.406,6.912 12.672,14.706 12.672,23.22 0,5.508 -1.332,11.754 -4.104,19.08 a 74.7,74.7 0 0 1 -9.63,18.054 c -5.49,7.416 -11.538,11.16 -18,11.178 -3.078,0 -6.48,-0.99 -10.962,-3.204 a 149.706,149.706 0 0 0 -6.192,-2.88 65.736,65.736 0 0 0 -22.896,-4.086 c -13.68,0 -17.748,3.186 -18.432,3.816 -3.006,2.826 -3.348,5.004 -3.348,6.39 0,4.212 0.828,7.398 2.556,9.756 2.394,3.294 5.238,5.886 8.694,7.92 4.536,2.7 11.448,6.336 20.502,10.8 14.13,6.696 25.92,13.212 35.028,19.35 z M 766.04401,249.066 a 12.33,12.33 0 0 0 -12.33,-12.294 l -58.374,0.054 a 8.37,8.37 0 0 1 -8.352,-8.352 l -0.432,-211.896 a 12.33,12.33 0 0 0 -12.33,-12.294 l -66.996,0.09 a 12.33,12.33 0 0 0 -12.294,12.33 l 0.54,294.3 a 12.348,12.348 0 0 0 12.312,12.312 l 146.052,-0.18 a 12.24,12.24 0 0 0 12.294,-12.33 z m -596.592,-99.63 0.072,58.788 a 14.22,14.22 0 0 1 -14.184,14.22 l -57.491999,0.09 a 6.264,6.264 0 0 0 -6.246,6.264 l 0.234,80.874 c 0,7.83 -6.354,14.22 -14.202,14.238 l -62.874,0.09 A 14.238,14.238 0 0 1 0.54001141,309.798 L 1.1406817e-5,19.224 A 14.22,14.22 0 0 1 14.202011,4.986 L 161.67601,4.77 a 14.22,14.22 0 0 1 14.238,14.256 l -0.072,58.788 a 14.256,14.256 0 0 1 -14.22,14.184 l -63.989999,0.09 a 6.264,6.264 0 0 0 -6.246,6.264 l 0.054,30.708 c 0,3.438 2.808,6.246 6.264,6.246 l 57.527999,-0.072 a 14.22,14.22 0 0 1 14.22,14.202 z m 129.636,21.384 c 0.27,3.906 3.96,6.912 8.208,6.642 4.23,-0.288 7.47,-3.726 7.2,-7.65 l -1.026,-14.292 c -0.288,-3.942 -3.978,-6.93 -8.226,-6.66 -4.23,0.288 -7.47,3.726 -7.2,7.65 z m -49.446,2.7 c 0.288,3.942 3.996,6.93 8.226,6.66 4.248,-0.288 7.47,-3.726 7.2,-7.65 l -1.026,-14.292 c -0.288,-3.924 -3.978,-6.93 -8.208,-6.66 -4.248,0.288 -7.47,3.726 -7.2,7.65 z m 153.36,134.388 v -0.018 l -68.724,-294.156 v -0.09 l -0.036,-0.072 a 12.348,12.348 0 0 0 -11.88,-9 l -82.296,0.126 a 12.366,12.366 0 0 0 -11.826,8.946 l -0.054,0.18 -69.228,294.336 v 0.036 a 12.204,12.204 0 0 0 2.106,10.692 c 2.34,3.06 5.904,4.824 9.774,4.824 l 58.626,-0.072 a 12.312,12.312 0 0 0 11.916,-9.36 l 17.424,-65.538 a 8.37,8.37 0 0 1 8.1,-6.372 l 24.444,-0.036 a 8.28,8.28 0 0 1 8.1,6.264 v 0.072 l 0.036,0.09 19.314,65.484 c 1.386,5.454 6.3,9.252 11.934,9.252 l 60.39,-0.09 a 12.24,12.24 0 0 0 11.88,-15.498 z m -117.972,-100.926 c -31.464,2.466 -58.95,-17.154 -61.344,-50.004 -2.232,-30.798 21.132,-57.744 52.56,-60.21 31.482,-2.466 59.328,20.448 61.362,51.264 2.142,32.31 -21.114,56.484 -52.578,58.95 z m 287.748,29.556 -58.374,0.054 a 8.37,8.37 0 0 1 -8.37,-8.352 l -0.432,-211.914 a 12.33,12.33 0 0 0 -12.33,-12.276 l -66.996,0.09 a 12.294,12.294 0 0 0 -12.276,12.33 l 0.54,294.3 a 12.33,12.33 0 0 0 12.312,12.294 l 146.034,-0.18 a 12.24,12.24 0 0 0 10.26,-5.472 12.204,12.204 0 0 0 2.034,-6.858 l -0.09,-61.74 a 12.312,12.312 0 0 0 -12.312,-12.276 z"
     fill-rule="evenodd"
     id="path2"
     style="fill:#000000;stroke-width:18" />
</svg>
