<?xml version="1.0" encoding="UTF-8" standalone="no"?>
<svg
   xmlns:dc="http://purl.org/dc/elements/1.1/"
   xmlns:cc="http://creativecommons.org/ns#"
   xmlns:rdf="http://www.w3.org/1999/02/22-rdf-syntax-ns#"
   xmlns:svg="http://www.w3.org/2000/svg"
   xmlns="http://www.w3.org/2000/svg"
   viewBox="0 0 1122.52 793.70667"
   height="793.70667"
   width="1122.52"
   xml:space="preserve"
   id="svg2"
   version="1.1"><metadata
     id="metadata8"><rdf:RDF><cc:Work
         rdf:about=""><dc:format>image/svg+xml</dc:format><dc:type
           rdf:resource="http://purl.org/dc/dcmitype/StillImage" /></cc:Work></rdf:RDF></metadata><defs
     id="defs6"><clipPath
       id="clipPath18"
       clipPathUnits="userSpaceOnUse"><path
         id="path16"
         d="M 0,595.28 H 841.89 V 0 H 0 Z" /></clipPath></defs><g
     transform="matrix(1.3333333,0,0,-1.3333333,0,793.70667)"
     id="g10"><g
       id="g12"><g
         clip-path="url(#clipPath18)"
         id="g14"><g
           transform="translate(209.8267,334.1309)"
           id="g20"><path
             id="path22"
             style="fill:#292929;fill-opacity:1;fill-rule:evenodd;stroke:none"
             d="M 0,0 C 0.159,-0.106 0.195,-0.245 0.107,-0.416 -0.14,-2.142 1.278,-3.151 1.875,-4.515 1.979,-4.742 2.05,-4.978 2.102,-5.22 c 0.286,-1.735 1.186,-3.465 -0.047,-5.185 0.658,-0.26 1.13,0.179 1.658,0.174 0.732,0.085 1.452,0.286 2.196,0.275 2.883,-1.011 -0.071,-2.329 0.19,-3.483 0.732,-3.101 0.941,-3.253 3.733,-2.143 7.039,2.8 14.08,5.586 21.371,7.681 0.943,0.271 1.916,0.567 2.521,1.456 1.196,1.193 1.905,2.793 3.217,3.892 0.182,0.328 0.421,0.605 0.726,0.823 1.354,0.284 1.354,0.284 1.871,-0.711 0.513,1.284 -1.021,1.562 -1.191,2.49 -0.056,0.25 -0.029,0.491 0.076,0.724 0.21,0.386 0.501,0.77 0.473,1.219 -0.173,2.802 0.248,5.346 2.881,6.985 0.124,0.214 0.28,0.404 0.457,0.576 0.507,0.372 1.461,0.566 0.253,1.369 -0.835,0.557 -2.252,1.165 -0.783,2.532 1.936,1.618 3.798,3.327 6.124,4.417 1.174,0.55 -0.124,1.691 0.457,2.39 0.849,1.022 1.746,2.003 2.622,3.002 0.356,0.745 0.075,0.837 -0.571,0.555 -0.49,-0.184 -0.973,-0.39 -1.472,-0.548 -0.95,-0.301 -1.913,-1.321 -2.903,-0.318 -0.996,1.01 0.156,1.872 0.552,2.945 -0.965,-0.07 -1.901,-0.967 -2.672,0.061 -0.854,0.227 0.829,2.123 -1.087,1.652 -1.651,1.131 -2.627,0.336 -3.707,-1.032 -2.218,-2.808 -4.624,-5.47 -6.971,-8.213 -2.692,3.423 -2.74,3.471 0.083,6.253 7.789,7.678 13.875,16.76 20.797,25.151 2.866,3.473 2.805,3.524 7.486,1.878 -2.564,-3.006 -5.063,-5.926 -7.549,-8.856 -0.768,-0.906 -1.446,-1.538 -1.021,-3.18 0.541,-2.093 -1.614,-3.852 -2.11,-5.942 -0.077,-0.305 -0.309,-0.663 -0.027,-0.901 0.176,-0.147 0.474,0.11 0.715,0.192 1.164,0.964 2.299,1.969 3.506,2.875 0.57,0.428 1.162,1.387 2.028,0.529 0.798,-0.79 0.419,-1.651 -0.162,-2.402 -1.58,-2.044 -3.181,-4.072 -4.967,-6.355 2.213,0.213 3.636,1.669 5.387,2.289 1.195,0.422 2.55,1.971 3.594,0.759 1.206,-1.402 -0.65,-2.463 -1.359,-3.6 -0.203,-0.785 0.444,-0.158 0.595,-0.358 1.079,0.198 2.097,1.787 3.268,0.074 0.355,-0.519 0.801,0.027 1.148,0.228 2.181,1.254 4.391,2.465 6.51,3.819 1.486,0.951 1.285,4.554 -0.201,5.485 -0.284,0.179 -0.701,0.396 -0.753,0.655 -0.764,3.836 -2.582,7.477 -1.748,11.604 1.28,6.337 2.371,12.713 3.519,19.077 0.143,0.787 0.253,1.607 -0.231,2.357 -3.313,5.138 -7.444,9.462 -12.777,12.515 -1.536,0.879 -3.383,0.052 -5.048,0.45 1.071,4.305 1.071,4.296 5.411,4.225 2.885,-0.046 5.791,0.144 8.649,-0.153 2.846,-0.296 3.213,0.806 2.894,3.297 -0.387,3.026 -0.344,6.111 -0.408,9.172 -0.049,2.317 1.002,3.31 3.464,3.041 1.306,-0.142 1.805,-0.668 1.858,-1.759 0.075,-1.554 0.436,-2.566 2.35,-2.327 1.5,0.188 3.379,-0.465 3.394,2.063 0.011,2.157 1.488,1.876 2.953,1.973 1.732,0.115 2.241,-0.669 2.258,-2.189 0.014,-1.294 0.601,-1.973 2.017,-1.832 0.982,0.098 1.983,0.061 2.972,0.014 0.94,-0.045 1.348,0.165 1.529,1.271 1.309,8.012 1.326,16.229 -0.635,23.87 -1.388,5.415 -1.677,10.898 -3.007,16.234 -0.438,1.757 -0.103,2.623 1.858,2.328 1.278,-0.192 1.928,0.655 2.637,1.497 4.117,4.891 8.314,9.718 12.356,14.669 1.144,1.402 1.612,1.304 2.692,-0.067 3.621,-4.598 7.391,-9.08 11.142,-13.575 0.773,-0.925 1.366,-2.171 2.955,-2.013 1.024,0.103 0.792,-0.78 0.813,-1.341 0.17,-4.594 0.321,-9.189 0.449,-13.785 0.019,-0.654 0.305,-1.642 -0.829,-1.61 -3.062,0.086 -1.867,-2.308 -2.05,-3.681 -0.214,-1.609 -1.106,-3.74 1.524,-4.442 4.894,-1.304 6.109,-4.6 5.44,-9.274 -0.353,-2.473 -0.121,-5.041 -0.036,-7.564 0.032,-0.985 -0.716,-2.61 1.365,-2.498 1.538,0.082 3.725,-0.802 3.757,1.981 0.021,1.747 0.892,1.887 2.362,2.047 3.437,0.376 3.017,-2.197 3.079,-4.013 0.194,-5.667 0.505,-11.39 -0.63,-16.977 -1.049,-5.166 -0.363,-10.177 0.447,-15.232 0.182,-1.136 0.664,-2.305 -0.815,-3.021 -0.964,-0.466 -0.584,-1.431 -0.581,-2.18 0.015,-5.421 1.689,-10.597 2.716,-16.004 0.893,3.805 1.687,7.635 2.699,11.406 2.645,9.87 1.964,20.026 2.598,30.055 0.943,14.93 1.478,29.885 2.13,44.831 0.061,1.379 0.479,2.247 1.618,3.1 3.889,2.919 7.636,6.026 11.489,8.996 1.055,0.814 1.507,1.677 1.765,3.053 1.225,6.499 -0.746,12.695 -1.585,18.983 -0.347,2.596 -0.108,4.468 1.947,6.411 4.709,4.453 9.142,9.201 13.606,13.905 1.153,1.213 2.139,1.482 3.714,0.783 3.606,-1.6 7.321,-2.952 10.955,-4.489 1.42,-0.601 2.293,-0.632 1.99,1.252 -0.225,1.394 0.982,3.416 -1.649,3.836 -0.509,0.082 -0.108,0.573 0,0.856 0.669,1.757 1.402,3.492 2.012,5.27 0.363,1.055 1.132,0.94 1.94,0.937 3.516,-0.015 7.034,0.043 10.548,-0.046 1.442,-0.038 2.264,0.248 1.994,1.893 -0.073,0.439 -0.02,0.9 -0.011,1.35 0.037,2.248 0.222,4.248 1.393,6.48 1.614,3.077 0.85,6.866 0.47,10.366 -0.068,0.627 -0.256,1.245 -0.274,1.871 -0.068,2.292 -1.524,5.545 3.15,4.698 0.272,-0.049 0.647,0.274 0.926,0.488 4.895,3.757 10.659,5.004 16.597,5.71 1.518,0.179 3.031,0.163 4.562,-0.19 4.167,-0.962 5.564,-2.906 4.371,-6.915 -0.51,-1.715 0.125,-1.936 1.46,-2.389 9.444,-3.206 19,-2.307 28.582,-0.949 1.158,0.164 2.324,0.26 3.486,0.387 0.535,0.151 1.158,0.483 1.116,-0.547 -10.639,-7.712 -22.384,-12.116 -35.666,-11.864 -2.25,0.042 -4.471,0.426 -6.671,0.935 -2.216,0.513 -3.094,1.67 -2.131,3.893 0.391,0.905 0.797,1.809 1.11,2.744 0.663,1.97 0.063,2.603 -2.071,2.283 -6.335,-0.952 -11.014,-4.583 -15.004,-9.301 -0.622,-0.736 -1.305,-1.626 0.044,-2.382 0.607,-0.341 0.537,-0.951 0.448,-1.416 -1.048,-5.463 1.774,-9.867 3.898,-14.465 0.367,-0.797 1.004,-1.5 0.893,-2.692 -3.353,1.111 -3.463,-0.916 -3.188,-3.304 0.04,-0.356 0.052,-0.728 -0.001,-1.08 -0.793,-5.121 0.149,-9.125 6.227,-9.991 1.065,-0.151 1.355,-0.804 0.989,-1.971 -0.562,-1.79 -0.684,-3.72 -1.258,-5.504 -1.964,-6.091 -0.107,-12.112 0.072,-18.17 0.136,-4.627 2.325,-8.149 4.793,-11.726 3.626,-5.257 7.088,-10.629 10.671,-15.917 0.748,-1.106 1.01,-2.256 1.026,-3.549 0.192,-14.153 0.638,-28.31 0.488,-42.459 -0.056,-5.432 -1.686,-10.827 -2.197,-16.277 -0.901,-9.626 -1.262,-19.258 2.99,-28.362 0.455,-0.973 1.025,-1.902 1.631,-2.791 0.493,-0.722 1.121,-1.352 1.961,-2.342 1.224,7.086 1.507,13.831 1.027,20.622 -0.127,1.797 -0.379,3.611 -0.258,5.397 0.173,2.547 -0.33,4.56 -2.963,5.533 -1.455,0.538 -1.169,1.4 -0.589,2.519 1.566,3.026 2.842,6.215 4.558,9.149 2.493,4.265 3.659,8.739 3.075,13.646 -0.231,1.94 0.192,3.204 2.531,2.72 1.859,-0.385 2.734,0.647 3.424,2.195 1.131,2.543 2.477,4.992 3.571,7.55 0.578,1.352 1.093,1.543 2.356,0.745 3.953,-2.496 8.062,-4.748 11.942,-7.348 1.913,-1.283 3.866,-1.063 5.692,-0.642 1.615,0.372 1.411,2.221 1.27,3.591 -0.047,0.456 -0.662,0.951 -0.474,1.473 1.648,4.565 -0.626,7.516 -3.413,10.989 -4.564,5.686 -3.005,11.535 3.307,15.507 1.356,0.855 1.696,1.412 1.097,3.067 -3.569,9.842 -4.481,19.952 -2.404,30.259 1.126,5.589 2.688,6.142 7.276,2.636 3.298,-2.52 6.504,-5.187 9.107,-8.421 1.707,-2.122 3.733,-3.068 6.354,-3.369 5.448,-0.627 10.893,-1.327 16.306,-2.196 3.081,-0.495 2.559,2.399 4.104,3.828 2.826,-2.67 5.698,-5.383 8.531,-8.058 -0.123,-0.25 -0.156,-0.395 -0.2,-0.399 -4.874,-0.408 -6.246,-3.438 -6.536,-7.887 -0.32,-4.922 -1.231,-9.812 -2.006,-14.697 -0.19,-1.192 0.428,-1.886 0.975,-2.665 2.692,-3.829 5.249,-7.742 7.401,-11.906 0.533,-1.032 1.019,-2.104 1.392,-3.203 0.894,-2.64 0.428,-3.419 -2.298,-3.821 -6.318,-0.93 -12.331,0.575 -18.26,2.477 -5.869,1.883 -11.233,4.773 -16.12,8.537 -0.423,0.327 -0.852,0.652 -1.305,0.933 -0.101,0.062 -0.32,-0.066 -0.587,-0.131 1.276,-3.324 2.62,-6.604 3.777,-9.948 0.521,-1.502 1.253,-2.052 2.888,-2.028 4.479,0.063 4.481,-0.024 4.481,-4.564 0,-2.885 0.182,-5.786 -0.039,-8.654 -0.436,-5.614 0.46,-10.907 3.204,-15.841 0.854,-1.539 0.761,-2.581 -1.069,-3.252 -1.344,-0.494 -1.979,-1.386 -1.979,-3.058 -0.005,-15.508 -0.004,-31.013 0.923,-46.504 0.07,-1.16 -0.17,-2.332 1.677,-2.388 1.335,-0.04 1.831,0.25 1.6,1.604 -0.15,0.886 -0.187,1.793 -0.248,2.692 -0.243,3.572 -0.438,7.01 1.565,10.391 1.748,2.946 2.08,6.491 2.011,9.942 -0.129,6.407 0.246,12.796 0.487,19.191 0.06,1.568 0.466,1.982 2.001,1.764 3.118,-0.444 6.268,-0.661 9.389,-1.09 1.449,-0.2 2.061,0.273 2.844,1.574 2.653,4.412 2.533,9.067 1.848,13.857 -0.55,3.842 0.191,5.368 2.858,5.938 2.676,0.574 6.234,-1.542 6.939,-4.259 0.479,-1.832 0.682,-3.732 0.295,-5.623 -0.331,-1.614 -0.05,-2.336 1.921,-2.422 6.746,-0.296 8.642,-2.821 7.623,-10.176 -0.195,-1.418 0.056,-1.586 1.255,-1.65 1.875,-0.102 3.743,-0.346 5.855,-0.554 -0.42,1.976 -1.731,3.645 -0.68,5.706 0.493,0.966 0.846,1.54 1.901,1.324 1.776,-0.364 1.805,0.642 2.18,2.048 1.961,7.387 -0.151,14.437 -1.418,21.572 -0.304,1.698 -1.411,1.199 -2.454,1.05 -4.825,-0.696 -9.672,-1.09 -14.549,-0.916 -0.941,0.033 -2.173,-0.361 -2.731,0.674 -0.634,1.183 0.168,2.281 0.829,3.214 3.753,5.31 8.994,8.518 15.191,10.037 7.252,1.778 14.096,0.384 20.462,-3.455 0.462,-0.278 0.933,-0.571 1.312,-0.945 0.934,-0.925 2.499,-1.666 2.165,-3.175 -0.302,-1.37 -1.958,-1.51 -3.109,-1.789 -4.183,-1.012 -8.392,-1.947 -12.629,-2.699 -1.486,-0.262 -1.711,-0.738 -1.419,-2.085 1.568,-7.226 2.818,-14.482 1.406,-21.906 -0.209,-1.095 -0.31,-1.909 1.387,-2.185 1.987,-0.323 2.15,-2.132 1.565,-3.781 -0.41,-1.152 -1.128,-2.194 -1.83,-3.512 5.757,-0.642 11.253,-1.523 16.777,-1.764 3.013,-0.132 3.831,-1.338 4.35,-4.001 2.278,-11.687 4.766,-23.333 7.302,-35.593 2.536,3.645 4.794,6.887 7.052,10.132 0.13,-0.061 0.262,-0.121 0.392,-0.18 -0.803,-3.757 -1.626,-7.511 -2.395,-11.276 -0.138,-0.673 -0.89,-1.44 0.346,-2.042 1.007,-0.492 1.722,-0.613 2.678,0.148 2.806,2.238 5.701,4.367 8.907,6.28 -1.485,-2.462 -3.009,-4.9 -4.42,-7.403 -0.329,-0.584 -1.495,-1.235 -0.537,-2.002 1.051,-0.841 1.727,0.029 2.353,0.896 3.999,5.549 8.028,11.078 12.055,16.607 0.467,0.641 0.993,1.239 1.941,1.622 -2.798,-6.674 -5.598,-13.348 -8.597,-20.501 3.982,0.438 4.76,4.175 7.547,6.086 0,-1.359 0.08,-2.549 -0.021,-3.725 -0.135,-1.599 0.846,-1.67 1.981,-2.456 4.147,-2.876 6.621,1.086 9.847,1.675 0.154,0.028 0.32,-0.024 0.88,-0.075 -2.019,-1.933 -3.855,-3.689 -6.303,-6.03 3.589,0.712 4.362,-1.146 4.702,-3.635 0.194,-1.428 1.561,-0.922 2.452,-0.903 1.864,0.038 3.476,0.113 3.811,-2.458 0.273,-2.086 1.387,-0.558 1.963,-0.102 3.595,2.831 7.138,5.726 11.125,8.275 -2.602,-3.984 -5.203,-7.968 -7.962,-12.191 2.857,-0.616 5.489,-1.134 8.095,-1.774 0.904,-0.223 1.275,0.028 1.609,0.827 2.839,6.785 5.672,13.573 8.605,20.317 0.64,1.476 -0.368,1.415 -1.16,1.732 -2.173,0.872 -4.611,1.535 -3.993,4.756 -0.157,0.49 -0.485,1.05 0.449,1.093 0.31,-0.943 0.611,-1.952 1.515,-2.46 1.319,-0.742 3.16,-2.019 4.168,-1.141 1.185,1.033 1.625,3.092 1.309,4.97 -1.015,6.027 -2.132,12.053 -1.873,18.199 0.14,3.324 0.458,6.646 0.856,9.949 0.193,1.598 -0.385,2.354 -1.696,3.214 -1.805,1.185 -4.701,0.672 -5.48,3.597 -0.168,0.626 -1.707,-0.196 -2.449,0.513 -0.307,1.084 0.753,0.663 1.114,1.012 1.115,0.365 1.812,0.922 1.672,2.311 -0.151,1.514 -0.034,3.058 -0.034,4.69 -0.989,0.203 -1.208,-1.487 -2.195,-0.808 -0.81,0.556 -0.59,1.445 -0.643,2.23 -0.105,1.528 -0.179,3.057 -0.275,4.585 -0.006,0.08 -0.088,0.155 -0.148,0.252 -0.767,0.123 -0.655,-0.671 -0.964,-1.003 -0.871,-0.933 -1.719,-2.05 -3.113,-1.784 -1.308,0.251 -1.139,1.654 -1.458,2.639 -0.358,1.108 -0.724,2.212 -1.129,3.445 -1.291,-1.138 -1.848,-3.323 -4.041,-2.982 -2.082,0.324 -1.696,2.742 -3.004,3.762 -0.196,0.19 -0.314,0.138 -0.329,-0.145 -0.089,-1.849 -0.599,-3.534 -1.928,-4.889 -0.739,-0.751 -0.749,-0.739 -4.314,1.853 0.097,-1.251 0.245,-2.4 0.265,-3.55 0.023,-1.608 -0.485,-2.649 -2.345,-1.729 -0.852,0.421 -1.11,0.255 -1.45,-0.715 -0.888,-2.532 -1.537,-2.612 -3.4,-0.577 -4.929,5.381 -5.873,11.821 -4.488,18.652 1.63,8.047 5.756,14.351 13.246,18.356 4.845,2.59 9.161,6.085 13.282,9.702 3.066,2.693 6.722,3.265 10.406,3.93 3.365,0.608 6.402,2.273 9.869,2.61 5.295,0.516 9.917,-1.236 14.389,-3.654 7.124,-3.852 13.36,-8.742 18.19,-15.369 2.222,-3.047 4.732,-5.903 7.307,-8.666 3.804,-4.087 6.199,-8.993 8.678,-13.888 1.454,-2.872 1.291,-5.689 0.417,-8.619 -1.365,-4.584 -3.918,-8.422 -7.118,-11.928 -1.403,-1.535 -1.938,-1.069 -2.373,0.579 -0.242,0.921 -0.482,1.843 -0.803,3.073 -0.581,-1.684 -0.985,-3.147 -1.596,-4.518 -0.352,-0.789 -0.078,-2.229 -1.592,-2.108 -1.446,0.116 -1.329,1.428 -1.721,2.762 -0.965,-1.327 -1.783,-2.45 -2.696,-3.705 -1.972,1.585 -2.108,3.559 -1.178,5.958 -1.688,-0.428 -2.381,-2.322 -3.795,-2.12 -1.651,0.24 -1.233,2.154 -1.863,3.327 -1.417,-1.646 -1.328,-4.574 -4.097,-4.872 -1.379,-0.147 -1.26,1.516 -1.949,2.175 -1.652,-1.516 -2.493,-3.764 -4.538,-4.913 -2.921,-1.643 -4.187,-0.994 -4.541,2.383 -1.282,-0.001 -2.056,-0.989 -2.919,-1.651 -1.889,-1.446 -2.767,-0.638 -3.152,1.263 -0.246,1.208 -0.25,2.465 -0.374,3.811 -1.926,-0.146 -2.677,-1.013 -2.705,-3.056 -0.064,-4.681 -0.391,-9.36 -0.653,-14.038 -0.359,-6.373 1.383,-12.262 4.084,-17.931 0.533,-1.115 1.153,-2.188 1.199,-3.487 1.198,0.039 2.062,0.727 3.005,1.216 2.205,0.575 3.897,-0.902 5.796,-1.504 1.692,-0.536 2.522,-0.097 2.714,2.133 -1.58,-1.284 -2.902,-1.609 -4.098,-0.02 -0.559,0.741 -1.109,-0.001 -1.638,-0.212 -0.923,-0.365 -1.746,-0.453 -2.187,0.692 v 1.797 c -0.872,-0.56 -1.024,-1.923 -2.048,-1.688 -1.126,0.258 -1.253,1.421 -1.447,2.388 -0.849,4.226 -0.836,8.445 0.753,12.484 2.038,5.182 6.626,6.631 11.556,7.636 10.59,2.158 17.594,-2.904 23.066,-11.188 2.31,-3.497 2.281,-7.082 0.279,-10.698 -1.738,-3.14 -4.072,-5.739 -7.299,-7.36 -1.001,-0.504 -2.872,-2.143 -2.736,1.021 0.04,0.899 -0.615,0.591 -1.128,0.513 -0.834,-0.125 -1.591,0.294 -1.674,1.026 -0.317,2.814 -1.533,1.782 -2.955,0.877 -1.048,-0.668 -2.544,-1.925 -2.524,0.885 0.005,0.813 -0.578,0.826 -1.1,0.464 -1.93,-1.339 -3.929,-2.617 -3.697,-5.469 0.115,-1.432 0.069,-2.884 0.011,-4.326 -0.084,-2.132 0.043,-3.66 2.417,-5.09 4.193,-2.526 3.906,-11.405 -0.019,-14.385 -2.108,-1.603 -5.795,-1.194 -7.605,0.842 -3.967,4.46 -2.57,11.82 2.765,14.538 0.076,0.039 0.184,0.02 0.255,0.067 0.975,0.644 0.781,8.771 -0.221,9.418 -3.282,2.12 -8.749,1.423 -11.454,-1.51 -0.336,-0.365 -0.514,-0.936 -0.624,-1.441 -1.638,-7.548 -3.313,-15.084 -4.11,-22.792 -0.178,-1.73 0.451,-2.206 1.854,-2.5 1.841,-0.387 3.647,-1.08 5.504,-1.24 3.679,-0.317 5.939,-2.173 7.577,-5.431 1.773,-3.522 4.071,-6.777 6.012,-10.221 0.798,-1.417 1.662,-1.983 3.375,-1.839 13.371,1.125 26.751,2.143 40.129,3.192 11.672,0.913 23.344,1.826 35.016,2.735 11.853,0.923 23.706,1.842 35.562,2.752 0.895,0.068 1.799,0.049 2.701,0.07 v -239.703 c -2.538,-1.269 -5.187,-0.416 -7.695,-0.117 -21.66,2.576 -43.371,4.652 -65.083,6.683 -14.079,1.319 -28.185,2.392 -42.284,3.517 -13.197,1.053 -26.401,2.058 -39.607,2.986 -9.879,0.697 -19.773,1.26 -29.66,1.863 -11.235,0.684 -22.485,1.105 -33.708,1.978 -3.768,0.293 -7.561,0.38 -11.333,0.515 -10.712,0.378 -21.425,0.846 -32.127,1.316 -12.507,0.55 -25.035,0.548 -37.524,1.46 -0.358,0.025 -0.72,0.048 -1.08,0.042 -13.253,-0.255 -26.498,0.362 -39.735,0.675 -28.579,0.676 -57.155,0.445 -85.728,0.298 -11.076,-0.058 -22.171,-0.108 -33.244,-0.496 -12.605,-0.442 -25.217,-0.615 -37.816,-1.073 -13.95,-0.506 -27.901,-1.026 -41.846,-1.653 -10.614,-0.478 -21.234,-0.927 -31.835,-1.599 -13.21,-0.84 -26.427,-1.581 -39.635,-2.466 -9.074,-0.61 -18.149,-1.245 -27.224,-1.849 -10.245,-0.682 -20.474,-1.605 -30.711,-2.411 -10.958,-0.864 -21.903,-1.889 -32.847,-2.9 -13.819,-1.281 -27.635,-2.581 -41.433,-4.08 -9.853,-1.069 -19.693,-2.264 -29.562,-3.181 -1.054,-0.098 -2.177,-0.26 -3.123,0.492 v 238.62 c 6.559,0.057 13.121,0.036 19.679,0.182 21.423,0.473 42.845,0.993 64.267,1.523 10.89,0.27 21.782,0.537 32.668,0.957 2.472,0.094 3.185,-0.387 2.828,-3.037 -0.799,-5.94 -1.183,-11.936 -1.758,-18.157 6.436,3.23 13.048,5.555 18.592,9.911 1.11,0.384 2.202,-0.413 3.402,0.107 1.12,0.489 2.346,0.331 2.039,2.287 -0.251,1.601 1.423,1.97 2.605,2.02 1.356,0.059 1.981,0.123 1.543,1.763 -0.344,1.283 0.487,2.256 1.785,2.549 0.73,0.165 1.425,0.183 1.517,1.13 1.682,2.334 4.281,3.506 6.582,4.994 4.513,2.917 9.006,5.904 13.917,8.136 1.656,0.752 2.04,1.828 1.509,3.424 0.65,1.84 0.572,3.556 -0.776,5.107 -0.651,0.746 -0.389,1.622 0.188,2.156 0.715,0.662 1.015,1.639 1.846,2.172 0.398,0.004 0.747,-0.139 1.075,-0.351 0.366,-0.27 0.722,-0.596 0.818,-1.032 0.529,-2.406 1.523,-1.408 2.64,-0.481 -0.617,0.994 -1.539,1.408 -2.293,2.016 -0.553,0.447 -1.277,0.956 -0.889,1.739 0.318,0.642 1.09,0.397 1.704,0.287 0.418,-0.075 0.857,-0.32 1.237,0.112 -3.173,0.245 -5.417,2.393 -4.957,5.306 0.245,1.55 -0.805,2.063 -1.253,3.051 -0.028,0.175 -0.055,0.349 -0.082,0.524 -0.317,0.37 -0.219,0.773 -0.108,1.187 0.149,0.559 0.352,1.176 -0.656,0.912 -0.507,0.478 -0.294,1.115 -0.367,1.687 0.535,0.775 0.654,1.559 0.341,2.495 -0.434,1.298 0.012,2.263 1.4,2.675 1.194,0.155 1.717,-0.673 1.707,-1.575 C -3.612,6.633 -2.904,7.938 -2.747,7.561 -2.452,6.9 -2.753,6.046 -2.08,5.508 -1.708,4.134 -2.324,2.904 -2.562,1.517 -1.89,0.878 -0.485,1.185 0,0" /></g><g
           transform="translate(33.4775,57.6299)"
           id="g24"><path
             id="path26"
             style="fill:#ffffff;fill-opacity:1;fill-rule:evenodd;stroke:none"
             d="m 0,0 c 7.423,0.792 14.846,1.586 22.27,2.376 11.188,1.19 22.371,2.449 33.569,3.549 12.994,1.276 25.997,2.465 39.004,3.592 11.935,1.036 23.876,2 35.822,2.883 15.002,1.109 30.01,2.163 45.022,3.126 12.858,0.827 25.718,1.638 38.588,2.198 27.194,1.18 54.389,2.406 81.595,3.216 34.065,1.014 68.142,1.396 102.225,1.254 31.014,-0.131 62.022,-0.733 93.016,-1.753 25.221,-0.828 50.433,-1.98 75.636,-3.262 20.335,-1.034 40.659,-2.325 60.969,-3.781 23.536,-1.688 47.069,-3.436 70.556,-5.734 19.082,-1.866 38.17,-3.686 57.251,-5.567 6.444,-0.636 12.878,-1.395 19.317,-2.097 -0.225,-0.339 0.526,-1.148 -0.543,-1.089 -0.629,0.036 -1.261,0.008 -1.893,0.008 -256.657,0 -513.313,-0.002 -769.969,0.075 C 1.737,-1.006 -0.069,-2.342 0,0" /></g><g
           transform="translate(211.9438,393.7847)"
           id="g28"><path
             id="path30"
             style="fill:#292929;fill-opacity:1;fill-rule:evenodd;stroke:none"
             d="m 0,0 c -2.776,-1.375 -5.551,-2.75 -8.693,-4.305 5.006,-2.03 9.941,-1.633 15.214,-2.436 -3.796,-2.556 -7.24,-4.683 -11.995,-3.608 1.367,-1.993 3.297,-2.568 5.092,-3.189 3.13,-1.082 6.323,-2.001 9.632,-2.417 1.624,-0.203 1.906,-0.851 0.866,-2.2 -1.749,-2.27 -4.143,-2.52 -7.167,-2.218 2.67,-3.271 6.352,-3.226 9.801,-4.395 -3.785,-1.768 -7.416,-2.265 -11.405,-1.616 2.135,-1.82 4.27,-3.639 6.583,-5.61 -1.813,-1.005 -3.686,-0.304 -5.779,-1.068 3.323,-2.731 7.147,-2.875 11.181,-3.601 -2.723,-2.274 -5.861,-2.218 -9.002,-3.328 2.534,-1.448 4.829,-2.76 7.15,-4.088 -2.319,-2.241 -4.534,-2.322 -11.124,-0.495 -1.032,-3.601 -1.032,-3.601 -5.643,-3.252 -2.917,1.529 -4.955,1.036 -6.484,-1.566 -1.837,-4.258 -3.767,-4.366 -8.717,-0.486 -2.129,-3.758 -2.764,-4.381 -5.736,-5.469 0.367,0.749 0.651,1.323 0.93,1.898 0.404,0.831 0.813,1.834 0.302,2.574 -0.75,1.088 -1.49,-0.414 -2.339,-0.324 -0.513,0.054 -1.054,-0.251 -1.587,-0.27 -1.254,-0.045 -2.51,-0.014 -4.059,-0.014 0.824,1.422 2.198,2.26 2.608,3.775 -0.439,0.862 -1.518,0.104 -2.113,0.817 1.128,2.274 3.46,4.078 3.248,7.463 -1.639,-2.567 -3.517,-4.259 -6.356,-4.857 0.03,2.442 1.2,4.543 1.562,7.209 -1.46,-0.765 -2.716,-1.422 -4.521,-2.366 1.264,2.734 2.789,4.684 3.571,7.002 1.048,3.11 0.886,3.34 -2.331,3.055 -0.593,-0.053 -1.383,-0.922 -1.853,0.099 -0.295,0.639 0.448,1.038 0.693,1.558 0.648,1.375 1.336,2.732 2.095,4.271 -1.462,0.252 -2.777,0.479 -4.323,0.747 2.262,2.389 5.976,3.86 5.152,8.624 -2.357,-3.375 -5.379,-3.667 -8.93,-3.372 1.636,1.975 3.672,3.217 4.852,5.207 0.445,0.751 1.158,1.634 0.475,2.474 -0.751,0.923 -1.392,-0.257 -2.089,-0.43 -1.055,-0.26 -2.032,-0.315 -3.533,0.18 3.742,2.658 6.866,5.267 7.83,10.199 -2.465,-2.011 -4.526,-3.672 -7.562,-3.483 2.215,4.223 4.728,8.215 4.06,13.614 -1.47,-2.083 -3.188,-3.011 -5.685,-3.335 3.059,3.563 5.201,7.196 5.11,11.755 -0.839,0.591 -1.232,-0.62 -2.083,-0.346 0.547,2.512 2.089,4.826 2.08,7.562 -1.389,-0.154 -1.728,-1.824 -3.306,-1.668 1.737,7.178 3.458,14.291 5.282,21.824 7.163,-6.114 14.221,-12.139 21.28,-18.165 -0.074,-0.176 -0.15,-0.351 -0.224,-0.526 -2.258,0.492 -4.514,0.987 -6.772,1.48 3.307,-5.54 9.263,-6.394 14.701,-8.478 -2.596,-2.268 -5.435,-2.552 -8.489,-2.061 1.365,-3.084 6.265,-5.688 16.045,-8.549 -1.894,-2.285 -4.44,-2.88 -7.034,-3.38 -1.508,0.345 -1.508,0.345 -1.76,-0.652 C -9.32,2.931 -6.644,1.248 -3.188,0.854 -2.256,0.081 -0.722,1.557 0,0" /></g><g
           transform="translate(139.0532,360.5923)"
           id="g32"><path
             id="path34"
             style="fill:#292929;fill-opacity:1;fill-rule:evenodd;stroke:none"
             d="M 0,0 C -0.454,-0.486 -0.908,-0.973 -1.755,-1.881 -1.644,5.651 -0.038,12.29 2.365,19.197 5.361,13.955 9.747,10.671 15.298,8.134 13.912,7.347 12.473,7.79 11.593,6.783 14.639,5.53 17.68,4.278 20.911,2.948 19.121,2.032 17.309,2.386 15.12,2.107 c 3.247,-3.397 7.229,-5.248 10.898,-7.936 -2.165,-0.989 -4.24,-0.966 -7.065,-0.554 4.173,-3.314 8.687,-3.71 12.974,-5.131 -1.098,-1.937 -3.025,-2.508 -5.436,-3.04 2.861,-1.732 5.545,-1.847 8.331,-2.332 -0.977,-1.931 -2.449,-3.163 -4.625,-3.849 2.141,-1.575 4.761,-1.585 7.15,-2.825 -1.826,-0.372 -3.365,-0.686 -5.747,-1.17 2.452,-0.823 4.15,-1.392 6.236,-2.091 -2.052,-1.066 -3.886,-2.018 -5.86,-3.044 2.506,-1.581 4.902,-0.405 7.4,-0.397 -0.576,-1.418 -2.135,-1.431 -2.871,-2.607 0.845,-0.567 1.81,-1.171 2.724,-1.846 0.476,-0.351 1.405,-0.566 1.161,-1.277 -0.161,-0.465 -0.944,-0.778 -1.506,-1.029 -2.068,-0.927 -4.384,0.132 -6.465,-0.771 0.019,-1.386 -0.862,-0.807 -1.357,-0.519 -2.007,1.174 -1.859,-0.151 -1.729,-1.441 0.342,-3.396 -0.33,-4.112 -3.829,-4.026 -0.46,0.66 -0.921,1.32 -1.462,2.097 -0.854,-0.588 -1.705,-1.181 -2.564,-1.762 -2.636,-1.786 -2.637,-1.784 -3.916,1.255 -1.391,-1.582 -2.733,-3.11 -4.407,-5.016 -0.168,1.785 -0.295,3.126 -0.447,4.745 -1.734,-0.962 -3.246,-1.801 -4.939,-2.74 -0.448,3.056 0.327,5.443 2.002,7.882 -1.793,-0.393 -3.389,-0.743 -5.091,-1.116 -0.201,3.183 1.874,5.396 3.128,8.548 -1.605,-0.96 -2.697,-1.614 -4.328,-2.589 1.263,2.917 2.327,5.376 3.512,8.116 -1.829,-0.653 -3.353,-2.211 -5.471,-1.247 1.361,3.57 3.16,6.985 3.672,11.027 -1.728,-0.045 -2.847,-1.483 -4.604,-1.736 0.972,2.924 2.368,5.596 2.939,9.061 -1.487,-0.931 -2.69,-1.685 -4.132,-2.587 0.399,2.949 0.756,5.589 1.114,8.229 C 0.662,-0.973 1.278,-0.187 0,0" /></g><g
           transform="translate(164.5576,316.814)"
           id="g36"><path
             id="path38"
             style="fill:#2a2a2a;fill-opacity:1;fill-rule:evenodd;stroke:none"
             d="M 0,0 C 2.203,0.615 4.133,1.404 3.406,4.357 3.206,5.171 2.892,6.326 3.733,6.767 4.247,7.038 5.261,6.568 5.835,5.917 6.21,5.492 6.584,5.512 6.915,5.986 7.432,5.632 7.775,5.139 6.889,4.995 6.057,4.859 5.167,5.07 3.76,5.164 5.317,2.503 6.675,0.181 8.032,-2.141 c 1.489,-0.134 0.353,1.226 0.92,1.616 0.092,0.799 0.184,1.596 0.298,2.576 1.803,-0.658 3.819,-0.556 4.774,-2.588 0.315,-0.671 0.788,-0.522 1.315,-0.179 0.474,0.308 1.034,0.594 0.58,1.217 -1.747,2.398 0.07,4.567 0.241,7.258 1.381,-1.301 2.472,-2.346 3.585,-3.368 0.576,-0.529 0.564,-2.518 1.901,-1.189 1.179,1.173 4.365,0.582 3.446,3.683 -0.025,0.085 -0.028,0.179 -0.023,0.269 0.07,1.138 -0.527,2.827 0.408,3.255 0.895,0.41 2.46,-0.155 3.522,-0.698 2.443,-1.249 4.205,-0.531 4.732,2.177 0.068,0.352 0.169,0.708 0.165,1.061 -0.026,2.405 0.9,2.48 2.727,1.322 0.848,-0.54 1.759,-1.88 3.051,-0.817 1.265,1.041 -0.099,2.033 -0.196,3.054 -0.026,0.266 -0.03,0.533 -0.043,0.799 1.225,-0.688 2.044,-1.285 1.704,-3.147 -0.474,-2.602 2.067,-4.652 5.59,-5.031 C 45.726,7.759 44.407,8.156 42.712,8.583 44.086,6.874 45.778,6.206 47.081,5.078 46.782,3.341 44.822,3.695 43.907,2.582 43.349,1.901 42.861,3.105 42.934,3.576 43.088,4.587 42.812,5.316 42.08,5.946 41.526,6.854 41.718,8.045 40.971,8.879 41.324,8.12 41.866,7.396 41.396,6.49 40.743,5.958 41.656,4.941 40.15,4.296 c -2.033,-0.87 1.527,-2.331 0.495,-3.849 2.285,-1.301 0.044,-2.244 -0.265,-3.341 -1.206,-3.027 -2.925,-3.813 -5.976,-3.864 -2.372,-0.039 -4.676,-1.05 -6.005,-3.347 -1.276,-2.208 -3.694,-3.219 -5.966,-2.444 -0.46,-3.16 -2.716,-4.514 -5.678,-3.372 0.54,-1.184 1.567,-2.138 1.505,-3.545 0.277,-0.854 1.585,-2.118 -0.932,-1.558 -1.64,0.366 -2.464,-0.694 -1.838,-2.42 0.564,-1.553 0.818,-2.544 -1.577,-2.006 -1.511,0.337 -3.386,0.135 -2.531,-2.419 0.45,-1.341 0.096,-1.783 -1.372,-1.596 -1.589,0.204 -3.303,-1.666 -4.814,0.28 3.585,3.021 3.637,3.063 0.64,6.918 -0.875,1.126 -1.318,3.551 -3.768,1.872 -0.55,-0.376 -0.886,0.401 -1.099,0.866 -0.239,0.525 -0.778,1.17 0.12,1.565 0.854,0.375 1.256,0.865 0.402,1.523 -1.015,0.781 -0.907,2.957 -2.877,2.466 -0.83,-0.207 -1.27,-0.229 -1.723,0.605 -0.422,0.776 -0.263,1.118 0.277,1.802 1.088,1.379 0.318,3.342 1.439,5.106 0.937,-0.472 2.001,-1.001 3.059,-1.544 C 2.021,-8.188 2.28,-8.695 2.787,-8.22 3.2,-7.833 2.914,-7.454 2.926,-7.044 3.014,-4.234 0.971,-2.345 0,0" /></g><g
           transform="translate(248.29,334.668)"
           id="g40"><path
             id="path42"
             style="fill:#2a2a2a;fill-opacity:1;fill-rule:evenodd;stroke:none"
             d="m 0,0 c 0.888,-0.974 2.143,-1.815 1.243,-3.436 -0.251,-0.452 -0.351,-1.063 -1.03,-1.082 -0.145,-0.003 -0.357,0.136 -0.434,0.27 -0.406,0.704 0.215,0.909 0.618,1.229 0.192,0.154 0.444,0.329 0.133,0.71 -0.374,-0.11 -0.785,-0.23 -1.197,-0.351 -0.157,0.157 -0.292,0.602 -0.415,0.466 -0.247,-0.277 -0.285,-0.713 0.005,-1.07 -0.888,-1.45 -1.83,-2.853 -3.307,-3.791 -1.394,-1.024 -1.957,0.349 -2.783,0.965 0.157,-1.448 -0.688,-2.174 -1.925,-2.515 -1.441,-0.398 -2.986,-1.143 -4.07,0.686 -0.003,-1.391 -0.349,-2.541 -1.933,-2.889 -1.381,-0.301 -2.634,-0.731 -4.172,-0.058 -0.58,0.254 -1.058,-1.934 -2.545,-2.231 -1.783,-0.357 -3.523,-0.345 -5.166,-2.031 -1.942,-1.994 -3.397,-1.275 -5.996,1.519 -0.128,0.471 -0.651,1.246 0.095,1.331 2.237,0.254 0.979,0.885 0.25,1.514 -1.362,0.948 -1.474,2.573 -2.097,3.914 -0.421,0.91 -0.687,1.917 -2.046,1.453 -0.63,0.808 -1.147,1.747 -1.914,2.393 -1.184,0.996 0.006,1.411 0.33,2.051 0.502,-0.243 0.426,-1.304 1.372,-0.937 0.746,0.29 0.848,0.755 0.635,1.483 -0.487,1.667 0.785,2.846 1.444,4.089 0.64,1.21 1.192,-0.368 1.838,-0.523 1.429,-0.344 1.139,-2.947 2.941,-2.484 2.288,0.587 -0.103,2.46 0.732,3.66 0.505,0.725 0.566,2.574 1.067,2.447 1.487,-0.378 3.07,-1.048 3.904,-2.55 0.28,-0.504 0.096,-1.36 1.096,-1.024 0.819,0.276 0.41,0.823 0.254,1.302 -0.609,1.875 1.079,2.899 1.648,4.331 0.297,0.747 0.817,0.213 1.249,-0.121 1.19,-0.917 1.932,-2.214 2.946,-3.481 -0.171,2.581 0.378,4.854 1.48,7.314 1.415,-1.395 3.035,-2.384 3.756,-4.173 0.25,-0.617 0.444,-0.966 1.089,-0.728 0.469,0.174 1.216,0.291 1.07,0.968 -0.408,1.886 0.493,4.016 1.699,4.282 1.406,0.311 2.765,-1.566 3.732,-2.981 0.718,-0.321 1.4,-0.679 2.194,-0.87 1.698,-0.407 2.524,0.14 2.627,1.887 0.045,0.77 -0.04,1.619 0.711,2.173 0.705,-0.065 1.409,-0.13 2.113,-0.194 C 2.572,11.756 3.516,11.362 4.228,10.877 4.833,10.463 5.903,10.425 5.633,9.303 5.35,8.121 4.199,9.419 3.715,8.703 3.592,8.815 3.458,8.926 3.298,8.951 3.174,8.97 3.081,8.897 3.095,8.871 3.248,8.586 3.525,8.817 3.727,8.723 3.662,8.209 3.784,7.53 3.5,7.21 1.576,5.04 1.568,5.064 1.336,1.364 1.29,0.615 0.886,0.022 0,0.002 -0.448,0.293 -0.983,0.111 -1.489,0.291 -1.005,-0.003 -0.456,0.252 0,0" /></g><g
           transform="translate(200.1709,344.3926)"
           id="g44"><path
             id="path46"
             style="fill:#2a2a2a;fill-opacity:1;fill-rule:evenodd;stroke:none"
             d="M 0,0 C -0.246,0.12 -0.877,-0.125 -0.6,0.503 0.215,2.358 2.133,2.749 3.714,3.431 5.241,4.091 5.752,2.497 6.484,1.566 5.816,1.235 5.832,0.632 5.869,0.021 5.396,-0.31 4.488,0.22 4.342,-0.755 4.327,-0.86 4.309,-0.964 4.291,-1.067 3.048,-1.852 3.138,-2.942 3.757,-4.005 4.597,-5.444 3.634,-5.688 2.608,-5.961 2.074,-4.288 1.51,-2.624 1.02,-0.937 0.854,-0.365 0.715,0.092 0,0" /></g><g
           transform="translate(249.418,347.7788)"
           id="g48"><path
             id="path50"
             style="fill:#292929;fill-opacity:1;fill-rule:evenodd;stroke:none"
             d="m 0,0 c -0.015,-0.628 -0.047,-1.256 -0.042,-1.884 0.009,-1.293 -0.062,-3.049 -1.424,-3.086 -1.346,-0.038 -3.405,-0.331 -4.066,1.781 1.412,0.707 1.051,2.408 2.059,3.518 C -1.823,2.146 -1.009,1.7 0,0" /></g><g
           transform="translate(680.127,341.8057)"
           id="g52"><path
             id="path54"
             style="fill:#ebeaeb;fill-opacity:1;fill-rule:evenodd;stroke:none"
             d="M 0,0 C 1.926,-1.317 2.614,0.439 3.546,1.564 5.351,-2.07 5.68,-2.119 7.945,0.808 8.715,0.331 8.492,-0.47 8.521,-1.139 8.627,-3.45 7.567,-4.169 5.416,-3.396 3.398,-2.669 1.604,-1.357 -0.587,-1.088 -0.392,-0.726 -0.195,-0.363 0,0" /></g><g
           transform="translate(209.8267,334.1309)"
           id="g56"><path
             id="path58"
             style="fill:#2a2a2a;fill-opacity:1;fill-rule:evenodd;stroke:none"
             d="M 0,0 C -3.843,1.074 -3.843,1.074 -2.08,5.508 -1.085,3.786 -0.491,1.913 0,0" /></g><g
           transform="translate(207.0801,341.6919)"
           id="g60"><path
             id="path62"
             style="fill:#2a2a2a;fill-opacity:1;fill-rule:evenodd;stroke:none"
             d="m 0,0 c -0.226,-0.363 -0.452,-0.725 -0.693,-1.112 -0.974,0.68 -0.256,2.565 -1.925,2.745 L -2.619,1.634 C -2.686,3.02 -2.686,3.02 -0.855,2.229 -0.57,1.486 -0.285,0.743 0,0" /></g><g
           transform="translate(658.4512,377.8579)"
           id="g64"><path
             id="path66"
             style="fill:#4f5050;fill-opacity:1;fill-rule:evenodd;stroke:none"
             d="M 0,0 C -0.37,-0.338 -0.741,-0.675 -1.113,-1.012 -2.281,-0.021 -3.127,1.192 -4.088,2.862 -2.187,2.091 -1.758,0.125 0,0" /></g><g
           transform="translate(173.5098,316.2891)"
           id="g68"><path
             id="path70"
             style="fill:#c4c3c3;fill-opacity:1;fill-rule:evenodd;stroke:none"
             d="M 0,0 C 0.036,-1.013 -0.036,-2.044 0.91,-3.018 -0.652,-3.183 -0.6,-2.213 -0.92,-1.616 -0.613,-1.077 -0.307,-0.538 0,0" /></g><g
           transform="translate(206.2251,343.9209)"
           id="g72"><path
             id="path74"
             style="fill:#292929;fill-opacity:1;fill-rule:evenodd;stroke:none"
             d="M 0,0 C -0.548,-0.315 -1.601,0.861 -1.764,-0.595 -2.43,-0.051 -2.58,0.764 -1.979,1.226 -1.262,1.776 -0.831,0.671 -0.186,0.493 -0.124,0.328 -0.062,0.165 0,0" /></g><g
           transform="translate(211.9438,393.7847)"
           id="g76"><path
             id="path78"
             style="fill:#717070;fill-opacity:1;fill-rule:evenodd;stroke:none"
             d="m 0,0 c -0.931,0.777 -2.287,-0.034 -3.188,0.854 1.13,0.041 2.323,0.329 3.372,0.058 C 1.549,0.56 0.443,0.248 0,0" /></g><g
           transform="translate(252.5811,361.7412)"
           id="g80"><path
             id="path82"
             style="fill:#dddddd;fill-opacity:1;fill-rule:evenodd;stroke:none"
             d="M 0,0 C 0.432,0.528 0.864,1.058 1.601,1.96 1.686,0.396 0.717,-0.557 1.087,-1.652 0.724,-1.103 0.362,-0.551 0,0" /></g><g
           transform="translate(260.2769,367.0913)"
           id="g84"><path
             id="path86"
             style="fill:#e0dfdf;fill-opacity:1;fill-rule:evenodd;stroke:none"
             d="m 0,0 c -0.506,-0.664 -0.9,-1.47 -2.27,-1.585 0.618,0.896 1.1,1.595 1.582,2.293 C -0.459,0.472 -0.229,0.236 0,0" /></g><g
           transform="translate(203.147,336.7437)"
           id="g88"><path
             id="path90"
             style="fill:#2a2a2a;fill-opacity:1;fill-rule:evenodd;stroke:none"
             d="M 0,0 C 2.781,0.218 0.145,-1.533 0.764,-2.1 0.079,-1.556 0.279,-0.691 0,0" /></g><g
           transform="translate(200.645,399.5483)"
           id="g92"><path
             id="path94"
             style="fill:#cecdcd;fill-opacity:1;fill-rule:evenodd;stroke:none"
             d="M 0,0 C -0.298,0.287 -0.82,0.557 -0.844,0.865 -0.88,1.341 -0.31,1.181 -0.026,1.131 0.578,1.027 1.166,0.818 1.759,0.652 1.205,0.349 0.401,0.72 0,0" /></g><g
           transform="translate(660.9873,340.0044)"
           id="g96"><path
             id="path98"
             style="fill:#5d5d5d;fill-opacity:1;fill-rule:evenodd;stroke:none"
             d="m 0,0 c -0.149,-0.364 -0.3,-0.729 -0.448,-1.093 -0.676,0.627 -0.446,1.476 -0.55,2.242 -0.117,0.53 0.074,0.69 0.575,0.482 C -0.281,1.087 -0.141,0.544 0,0" /></g><g
           transform="translate(260.1631,357.9492)"
           id="g100"><path
             id="path102"
             style="fill:#dfdede;fill-opacity:1;fill-rule:evenodd;stroke:none"
             d="M 0,0 C 0.557,0.551 1.21,0.897 2.215,1.036 1.782,0.203 1.243,-0.238 0.57,-0.556 0.38,-0.37 0.19,-0.185 0,0" /></g><g
           transform="translate(268.8984,360.8281)"
           id="g104"><path
             id="path106"
             style="fill:#adadad;fill-opacity:1;fill-rule:evenodd;stroke:none"
             d="m 0,0 c -0.569,-0.52 -1.105,-1.096 -2.218,-1.214 0.457,0.798 0.901,1.309 1.623,1.572 C -0.289,0.419 -0.077,0.322 0,0" /></g><g
           transform="translate(139.0532,360.5923)"
           id="g108"><path
             id="path110"
             style="fill:#a5a4a5;fill-opacity:1;fill-rule:evenodd;stroke:none"
             d="M 0,0 C 0.197,0.263 0.354,0.697 0.599,0.753 1.06,0.86 1.121,0.377 1.054,0.073 0.927,-0.501 0.697,-1.052 0.51,-1.611 0.161,-1.131 0.743,-0.356 0,0" /></g><g
           transform="translate(660.5645,341.6357)"
           id="g112"><path
             id="path114"
             style="fill:#d2d2d1;fill-opacity:1;fill-rule:evenodd;stroke:none"
             d="M 0,0 C -0.192,-0.161 -0.384,-0.321 -0.575,-0.482 -0.98,-0.008 -1.364,0.583 -0.53,0.87 -0.005,1.049 0.001,0.414 0,0" /></g><g
           transform="translate(482.5342,550.6284)"
           id="g116"><path
             id="path118"
             style="fill:#6d6c6c;fill-opacity:1;fill-rule:evenodd;stroke:none"
             d="M 0,0 C -0.372,0.183 -0.744,0.365 -1.115,0.547 -0.497,1.066 0.229,1.362 0.842,0.719 1.027,0.525 0.445,0.08 0,0" /></g><g
           transform="translate(182.8179,297.3481)"
           id="g120"><path
             id="path122"
             style="fill:#f7f7f7;fill-opacity:1;fill-rule:evenodd;stroke:none"
             d="M 0,0 C -1.196,1.593 -2.293,3.233 -2.983,5.415 -2.326,5.29 -1.985,5.329 -1.85,5.182 0.003,3.143 1.217,3.131 3.302,4.992 4.091,5.695 3.753,6.159 3.335,6.802 3.13,7.115 2.661,7.56 3.186,7.945 3.641,8.281 4.281,8.391 4.588,7.798 5.096,6.816 5.757,6.34 6.588,7.251 7.464,8.209 9.806,7.71 9.333,9.96 c -0.087,0.409 -0.109,0.7 0.272,0.88 2.106,0.995 4.661,3.252 6.241,2.705 3.686,-1.276 4.337,1.826 6.274,3.027 1.202,-1.511 1.253,-2.494 -0.812,-3.511 C 13.812,9.37 6.807,4.838 0,0" /></g><g
           transform="translate(520.5459,465.7642)"
           id="g124"><path
             id="path126"
             style="fill:#fafafa;fill-opacity:1;fill-rule:evenodd;stroke:none"
             d="M 0,0 C -0.052,-1.176 0.046,-2.052 -1.518,-2.384 -8.544,-3.878 -8.562,-3.943 -12.941,2.43 -7.81,2.43 -2.598,2.44 2.615,2.419 3.418,2.416 4.047,1.822 4.15,1.154 4.299,0.203 3.188,0.009 2.68,-0.566 1.553,-1.841 1.107,-0.114 0,0" /></g><g
           transform="translate(215.3159,321.0586)"
           id="g128"><path
             id="path130"
             style="fill:#f5f5f5;fill-opacity:1;fill-rule:evenodd;stroke:none"
             d="m 0,0 c 0.498,-0.071 1.305,0.463 1.457,-0.14 0.889,-3.542 2.881,-1.262 4.46,-0.885 2.37,0.565 0.201,2.024 0.542,2.998 0.051,0.148 0.208,0.259 0.479,0.584 1.155,-3.388 3.255,-1.324 5.087,-0.972 1.273,0.246 0.398,1.087 0.404,1.667 0.005,0.589 -0.419,1.339 0.44,1.61 0.879,0.277 0.919,-0.493 1.172,-1.071 1.038,-2.373 2.555,-0.262 3.825,-0.291 1.117,-0.026 1.659,0.699 1.113,1.988 -0.198,0.468 -0.931,1.407 0.23,1.786 1.11,0.364 0.79,-0.733 0.959,-1.167 1.036,-2.644 2.539,-0.222 3.783,-0.32 1.011,-0.08 1.871,0.55 1.261,1.925 -0.298,0.671 -0.919,1.744 0.202,1.997 1.085,0.245 1.042,-1.019 1.077,-1.73 C 26.565,6.471 27.646,6.661 28.59,6.555 28.757,5.081 27.582,5.137 26.675,4.844 19.014,2.358 11.399,-0.257 3.982,-3.415 0.947,-4.706 0.919,-4.7 0.062,-1.594 -0.076,-1.095 0.015,-0.533 0,0" /></g><g
           transform="translate(524.6543,446.8018)"
           id="g132"><path
             id="path134"
             style="fill:#f9f8f8;fill-opacity:1;fill-rule:evenodd;stroke:none"
             d="m 0,0 c -0.403,0.273 -0.493,0.309 -0.546,0.374 -4.211,5.201 -4.4,5.943 -0.744,11.49 0.807,1.223 1.973,2.245 2.563,3.71 0.222,0.547 0.76,1.432 1.63,0.965 C 3.696,16.113 3.731,15.343 3.502,14.432 2.3,9.68 1.182,4.907 0,0" /></g><g
           transform="translate(488.377,432.9004)"
           id="g136"><path
             id="path138"
             style="fill:#f6f6f7;fill-opacity:1;fill-rule:evenodd;stroke:none"
             d="M 0,0 C -5.479,5.571 -4.61,10.676 1.805,12.939 1.631,8.669 -0.034,4.765 0,0" /></g><g
           transform="translate(553.3486,379.5796)"
           id="g140"><path
             id="path142"
             style="fill:#f7f7f7;fill-opacity:1;fill-rule:evenodd;stroke:none"
             d="m 0,0 c -1.762,-0.121 -3.465,-0.089 -5.063,0.43 -0.996,0.324 -2.935,-0.817 -2.871,1.101 0.052,1.516 0.006,3.725 1.879,4.334 1.686,0.548 3.354,-0.166 4.221,-1.978 C -1.229,2.619 -0.634,1.346 0,0" /></g><g
           transform="translate(533.9775,381.4712)"
           id="g144"><path
             id="path146"
             style="fill:#f6f5f5;fill-opacity:1;fill-rule:evenodd;stroke:none"
             d="M 0,0 C 1.982,1.703 3.108,3.704 5.254,4.534 6.798,5.131 8.104,5.121 8.178,2.899 8.2,2.198 8.44,1.5 8.614,0.809 8.912,-0.374 8.767,-1.051 7.253,-0.826 4.996,-0.49 2.718,-0.302 0,0" /></g><g
           transform="translate(518.0068,455.4966)"
           id="g148"><path
             id="path150"
             style="fill:#f4f4f4;fill-opacity:1;fill-rule:evenodd;stroke:none"
             d="M 0,0 C -3.498,3.442 -3.499,3.443 0.593,5.536 1.228,5.861 1.923,6.097 2.492,6.509 3.223,7.039 3.552,6.61 4.046,6.158 4.711,5.549 4.412,5.11 3.979,4.61 2.695,3.125 1.413,1.637 0,0" /></g><g
           transform="translate(280.0718,410.3628)"
           id="g152"><path
             id="path154"
             style="fill:#efeeee;fill-opacity:1;fill-rule:evenodd;stroke:none"
             d="M 0,0 C -2.216,2.283 -4.135,4.26 -6.022,6.203 -0.506,7.893 0.33,7.119 0,0" /></g><g
           transform="translate(666.7002,375.3672)"
           id="g156"><path
             id="path158"
             style="fill:#f1f1f1;fill-opacity:1;fill-rule:evenodd;stroke:none"
             d="m 0,0 c -1.869,0.271 -3.93,0.355 -4.334,1.629 -0.551,1.737 -0.73,3.873 0.283,5.731 0.256,0.468 0.578,1.017 1.215,0.657 0.493,-0.28 1.269,-0.586 0.767,-1.411 C -3.742,3.87 -1.868,2.112 0,0" /></g><g
           transform="translate(686.5469,318.1079)"
           id="g160"><path
             id="path162"
             style="fill:#f2f2f1;fill-opacity:1;fill-rule:evenodd;stroke:none"
             d="m 0,0 c 0.165,1.211 0.257,2.998 1.558,2.998 1.514,0 1.683,-1.784 1.689,-3.127 C 3.253,-1.474 3.019,-3.315 1.6,-3.275 0.203,-3.234 0.104,-1.362 0,0" /></g><g
           transform="translate(211.5176,329.271)"
           id="g164"><path
             id="path166"
             style="fill:#ebeaeb;fill-opacity:1;fill-rule:evenodd;stroke:none"
             d="M 0,0 C 0.59,1.527 1.386,1.904 2.136,0.181 2.917,-1.619 3.482,-3.513 4.143,-5.367 3.58,-5.796 2.965,-6.047 2.24,-5.929 0.556,-4.303 0.792,-1.952 -0.005,0.011 Z" /></g><g
           transform="translate(494.2148,432.1929)"
           id="g168"><path
             id="path170"
             style="fill:#e9e8e8;fill-opacity:1;fill-rule:evenodd;stroke:none"
             d="M 0,0 C -0.771,2.523 -1.35,4.423 -1.956,6.408 1.396,5.92 1.396,5.92 0,0" /></g><g
           transform="translate(211.5122,329.2817)"
           id="g172"><path
             id="path174"
             style="fill:#2a2a2a;fill-opacity:1;fill-rule:evenodd;stroke:none"
             d="M 0,0 C 1.077,-1.856 1.696,-3.884 2.246,-5.939 1.449,-5.854 0.804,-6.704 -0.303,-6.216 1.121,-4.217 -0.296,-2.102 0,0" /></g><g
           transform="translate(205.9531,323.3037)"
           id="g176"><path
             id="path178"
             style="fill:#dddcdc;fill-opacity:1;fill-rule:evenodd;stroke:none"
             d="m 0,0 c -0.43,0.975 -0.868,1.945 -1.283,2.926 -0.2,0.469 -0.594,1.05 0.109,1.364 C -0.402,4.635 -0.028,4.14 0.117,3.411 0.377,2.103 0.997,0.847 0.684,-0.543 0.261,-0.607 0.126,-0.309 0,0" /></g><g
           transform="translate(247.2129,331.4043)"
           id="g180"><path
             id="path182"
             style="fill:#c6c6c6;fill-opacity:1;fill-rule:evenodd;stroke:none"
             d="M 0,0 C -1.04,0.313 -1.071,1.009 -0.601,1.789 -0.355,2.196 0.194,2.402 0.548,2.054 0.99,1.62 0.393,1.104 0.41,0.604 0.273,0.402 0.136,0.201 0,0" /></g><g
           transform="translate(197.4961,313.4644)"
           id="g184"><path
             id="path186"
             style="fill:#fafafa;fill-opacity:1;fill-rule:evenodd;stroke:none"
             d="m 0,0 c -0.66,-0.316 -1.117,-0.547 -1.583,-0.757 -5.967,-2.687 -5.947,-2.677 -8.707,3.246 -0.427,0.916 -0.245,1.315 0.557,1.876 4.036,2.823 4.016,2.851 7.025,-0.943 C -1.832,2.318 -0.959,1.212 0,0" /></g><g
           transform="translate(203.623,316.8506)"
           id="g188"><path
             id="path190"
             style="fill:#f3f2f2;fill-opacity:1;fill-rule:evenodd;stroke:none"
             d="m 0,0 c 0.174,-0.545 -0.321,-0.604 -0.551,-0.811 -0.447,-0.4 -0.817,-0.187 -1.124,0.198 -1.624,2.034 -3.237,4.077 -4.862,6.112 -0.668,0.838 0.157,1.197 0.6,1.399 0.636,0.289 1.461,1.459 1.947,0.672 C -2.495,5.149 -1.307,2.538 0,0" /></g><g
           transform="translate(181.5996,314.1216)"
           id="g192"><path
             id="path194"
             style="fill:#f0efef;fill-opacity:1;fill-rule:evenodd;stroke:none"
             d="M 0,0 C 0.841,0.018 1.034,-0.511 1.289,-0.966 2.026,-2.282 2.758,-3.601 3.503,-4.912 3.81,-5.453 4.293,-6.009 3.415,-6.439 2.865,-6.708 2.417,-6.538 2.076,-5.984 1.147,-4.479 0.162,-3.006 -0.759,-1.495 -1.398,-0.445 -0.231,-0.447 0,0" /></g><g
           transform="translate(172.6401,302.6162)"
           id="g196"><path
             id="path198"
             style="fill:#e7e7e6;fill-opacity:1;fill-rule:evenodd;stroke:none"
             d="m 0,0 c -0.151,-0.289 -0.215,-0.573 -0.393,-0.714 -0.336,-0.266 -0.685,-0.098 -0.912,0.2 -0.864,1.131 -1.716,2.27 -2.548,3.425 -0.227,0.315 -0.22,0.711 0.159,0.907 0.195,0.1 0.621,0.106 0.726,-0.022 C -1.958,2.559 -0.994,1.285 0,0" /></g><g
           transform="translate(175.5503,310.314)"
           id="g200"><path
             id="path202"
             style="fill:#dedede;fill-opacity:1;fill-rule:evenodd;stroke:none"
             d="M 0,0 C 1.632,-1.408 2.796,-3.148 3.342,-5.311 1.434,-4.113 0.826,-1.979 0,0" /></g><g
           transform="translate(175.3262,296.8057)"
           id="g204"><path
             id="path206"
             style="fill:#d1d1d1;fill-opacity:1;fill-rule:evenodd;stroke:none"
             d="m 0,0 c -0.061,0.064 -0.137,0.119 -0.18,0.194 -0.49,0.868 -1.693,1.327 -1.492,2.579 0.018,0.109 0.3,0.291 0.381,0.257 C -0.238,2.583 0.146,1.615 0.509,0.637 0.803,0.055 0.485,-0.04 0,0" /></g><g
           transform="translate(175.3262,296.8057)"
           id="g208"><path
             id="path210"
             style="fill:#cccaca;fill-opacity:1;fill-rule:evenodd;stroke:none"
             d="M 0,0 C 0.17,0.212 0.339,0.424 0.509,0.637 1.041,-0.031 1.779,-0.607 1.566,-1.686 0.598,-1.469 0.392,-0.647 0,0" /></g><g
           transform="translate(240.583,334.355)"
           id="g212"><path
             id="path214"
             style="fill:#e7e7e6;fill-opacity:1;fill-rule:evenodd;stroke:none"
             d="m 0,0 c 0.162,-0.554 -0.22,-0.734 -0.637,-0.949 -0.842,-0.436 -0.855,0.278 -1.001,0.715 -0.478,1.432 -0.887,2.888 -1.38,4.316 -0.268,0.779 0.072,1.141 0.713,1.447 0.929,0.445 1.115,-0.276 1.26,-0.846 C -0.653,3.133 -0.343,1.562 0,0" /></g><g
           transform="translate(221.7456,326.8535)"
           id="g216"><path
             id="path218"
             style="fill:#e9e8e8;fill-opacity:1;fill-rule:evenodd;stroke:none"
             d="m 0,0 c 0.011,-0.381 -0.066,-0.723 -0.5,-0.813 -0.497,-0.103 -0.855,0.059 -1.035,0.579 -0.584,1.695 -1.12,3.41 -1.806,5.062 -0.35,0.843 0.284,0.912 0.67,1.148 0.584,0.355 0.974,0.147 1.158,-0.541 C -1.026,3.618 -0.505,1.811 0,0" /></g><g
           transform="translate(225.7979,335.2593)"
           id="g220"><path
             id="path222"
             style="fill:#e4e3e3;fill-opacity:1;fill-rule:evenodd;stroke:none"
             d="m 0,0 c 0.515,-0.077 0.732,-0.416 0.858,-0.89 0.412,-1.557 0.793,-3.124 1.301,-4.65 0.222,-0.668 0.088,-0.959 -0.5,-1.243 -0.89,-0.43 -0.82,0.323 -0.951,0.752 -0.499,1.622 -0.975,3.252 -1.43,4.887 C -0.89,-0.54 -0.714,-0.08 0,0" /></g><g
           transform="translate(244.3223,341.0615)"
           id="g224"><path
             id="path226"
             style="fill:#eae9e9;fill-opacity:1;fill-rule:evenodd;stroke:none"
             d="M 0,0 C -0.079,0.599 -0.026,1.103 0.702,1.198 1.257,1.27 1.502,0.848 1.624,0.426 2.043,-1.016 2.408,-2.473 2.807,-3.921 2.993,-4.593 2.608,-4.886 2.085,-5.131 1.27,-5.514 1.217,-4.872 1.09,-4.385 0.714,-2.927 0.362,-1.462 0,0" /></g><g
           transform="translate(234.2163,331.96)"
           id="g228"><path
             id="path230"
             style="fill:#e7e6e5;fill-opacity:1;fill-rule:evenodd;stroke:none"
             d="m 0,0 c -0.014,-0.581 -0.091,-0.904 -0.504,-1.027 -0.438,-0.132 -0.679,0.149 -0.834,0.461 -0.153,0.311 -0.232,0.666 -0.299,1.01 -0.314,1.61 -1.28,3.078 -1.047,4.797 C -2.67,5.34 -2.08,5.506 -2.021,5.432 -0.709,3.785 -0.929,1.583 0,0" /></g><g
           transform="translate(252.0171,343.3911)"
           id="g232"><path
             id="path234"
             style="fill:#d4d3d3;fill-opacity:1;fill-rule:evenodd;stroke:none"
             d="m 0,0 c -0.244,-0.321 -0.489,-0.643 -0.733,-0.963 -0.513,0.584 -0.733,1.302 -0.747,2.041 -0.012,0.615 0.624,0.598 0.98,0.54 1.188,-0.193 0.297,-1.093 0.488,-1.638 z" /></g><g
           transform="translate(248.6953,334.3877)"
           id="g236"><path
             id="path238"
             style="fill:#292929;fill-opacity:1;fill-rule:evenodd;stroke:none"
             d="M 0,0 C -1.538,0.107 -2.405,0.167 -3.272,0.228 -2.273,0.806 -1.3,1.11 0,0" /></g><g
           transform="translate(50.3477,76.6523)"
           id="g240"><path
             id="path242"
             style="fill:#ffffff;fill-opacity:1;fill-rule:nonzero;stroke:none"
             d="m 0,0 c 0,0 -0.09,58.853 -0.258,77.308 -0.176,15.862 -0.388,34.7 -0.649,56.516 -0.258,21.811 -0.646,47.249 -1.163,73.462 6.897,-0.173 14.743,-0.173 23.538,0 7.587,0 16.553,-0.629 26.902,-0.453 10.346,0.169 21.984,-0.282 34.919,0.063 -0.175,-3.278 -0.261,-7.158 -0.261,-11.644 -0.171,-3.967 -0.258,-8.79 -0.258,-14.481 v -20.177 c -2.416,0.173 -5.432,0.261 -9.051,0.261 -3.105,0 -7.074,-0.045 -11.899,-0.129 -4.829,-0.092 -10.522,-0.221 -17.071,-0.392 v -9.565 c 0,-3.109 -0.044,-6.903 -0.13,-11.387 -0.09,-4.482 -0.045,-5.58 0.13,-11.272 h 11.25 c 5.952,0 7.905,0.173 17.909,0.52 v -16.663 c 0,-3.97 -0.717,-15.68 -0.717,-21.281 0,-5.604 0.086,0.541 0.261,-6.013 -2.245,0.171 -5.007,0.261 -8.276,0.261 h -6.275 c -4.314,0 -7.341,-0.09 -13.38,-0.261 0.173,-7.76 0.304,-21.248 0.391,-29.87 0.084,-8.622 0.299,-35.389 0.646,-45.042 z" /></g><g
           transform="translate(185.3291,97.7451)"
           id="g244"><path
             id="path246"
             style="fill:#ffffff;fill-opacity:1;fill-rule:nonzero;stroke:none"
             d="m 0,0 c -9.853,0 -18.195,1.827 -25.026,5.482 -6.834,3.653 -12.394,9.054 -16.682,16.203 -4.293,7.15 -7.432,15.973 -9.416,26.458 -1.988,10.489 -2.979,22.643 -2.979,36.467 0,13.187 0.793,25.225 2.385,36.108 1.584,10.882 4.408,20.261 8.457,28.123 4.053,7.868 9.536,13.982 16.449,18.356 6.912,4.367 15.768,6.554 26.574,6.554 10.965,0 19.982,-2.024 27.055,-6.076 7.068,-4.054 12.63,-9.894 16.683,-17.523 4.052,-7.627 6.829,-16.919 8.343,-27.883 1.507,-10.966 2.26,-23.44 2.26,-37.422 C 53.947,69.274 52.755,56.087 50.53,45.281 48.303,34.478 45.008,25.739 40.639,19.064 36.268,12.392 30.704,7.542 23.954,4.524 17.199,1.509 9.214,0 0,0 m 0.477,32.652 c 1.111,0 2.104,0.554 2.98,1.668 0.87,1.109 1.586,3.493 2.144,7.151 0.555,3.647 0.955,9.058 1.193,16.207 0.237,7.149 0.357,16.84 0.357,29.077 0,11.596 -0.12,20.893 -0.357,27.887 -0.238,6.99 -0.638,12.31 -1.193,15.97 -0.558,3.651 -1.309,6.075 -2.264,7.267 -0.953,1.195 -2.067,1.788 -3.337,1.788 -1.59,0 -2.859,-0.677 -3.813,-2.024 -0.954,-1.353 -1.669,-4.017 -2.145,-7.985 -0.475,-3.976 -0.796,-9.533 -0.954,-16.686 -0.157,-7.154 -0.234,-16.446 -0.234,-27.886 0,-11.603 0.153,-20.855 0.473,-27.766 0.319,-6.912 0.754,-12.202 1.31,-15.849 0.557,-3.658 1.312,-6.042 2.266,-7.151 0.952,-1.114 2.145,-1.668 3.574,-1.668" /></g><g
           transform="translate(308.9624,94.8477)"
           id="g248"><path
             id="path250"
             style="fill:#ffffff;fill-opacity:1;fill-rule:nonzero;stroke:none"
             d="m 0,0 -4.215,16.867 c -1.326,5.457 -2.977,9.886 -4.961,17.575 -1.982,7.688 -4.303,16.326 -6.943,25.919 -0.166,-0.17 -0.497,-0.249 -0.993,-0.249 h -2.48 L -18.6,6.787 h -12.898 -14.63 c -5.623,0 -11.743,-0.08 -18.355,-0.245 0.165,13.223 0.331,28.519 0.497,45.881 0.163,14.879 0.285,32.737 0.37,53.569 0.084,20.837 0.894,42.893 0.894,69.184 7.438,1.323 34.186,0.578 39.974,0.578 22.981,0 33.634,-1.366 44.298,-11.864 10.666,-10.503 20.394,-24.827 20.394,-45.496 0,-10.913 -1.145,-20.005 -4.863,-27.282 C 33.358,83.836 28.273,77.883 21.825,73.258 22.82,69.947 25.298,62.3 29.268,50.314 33.235,38.325 39.022,23.974 46.628,2.978 43.155,2.815 39.104,2.567 34.475,2.234 30.505,1.905 25.628,1.531 19.84,1.119 14.053,0.704 7.443,0.336 0,0 m -19.592,90.123 c 4.793,0.146 8.556,1.934 11.286,5.367 2.727,3.431 4.091,9.175 4.091,17.23 0,7.906 -1.283,14.131 -3.845,18.682 -2.566,4.549 -6.657,6.605 -12.274,6.155 0,-5.966 0.037,-11.747 0.121,-17.339 0.083,-5.596 0.207,-10.631 0.374,-15.107 0.161,-5.222 0.247,-10.217 0.247,-14.988" /></g><g
           transform="translate(448.9873,104.2227)"
           id="g252"><path
             id="path254"
             style="fill:#ffffff;fill-opacity:1;fill-rule:nonzero;stroke:none"
             d="m 0,0 c 0.163,12.559 0.255,27.234 0.255,44.039 0,14.422 -0.092,31.775 -0.255,52.053 -0.167,20.279 0.328,39.51 -0.008,65.304 3.672,0.167 33.529,6.217 39.707,6.558 2.172,-6.617 5.478,-14.966 8.483,-23.622 2.505,-7.47 5.595,-16.547 9.271,-27.238 3.672,-10.69 7.932,-22.824 12.776,-36.4 -0.501,10.351 -1.251,23.461 -2.255,39.327 -1.002,15.866 -2.423,27.776 -4.258,50.01 3.174,-0.173 34.49,-0.221 40.839,-0.05 0.163,-13.918 -0.611,-144.423 0.228,-172.93 C 102.109,-3.287 76.92,-6.055 69.904,-6.56 67.398,0.564 64.555,8.712 61.385,17.875 58.54,25.678 55.205,32.026 51.363,42.638 47.52,53.242 43.258,64.995 38.588,77.893 c 0.33,-8.827 0.749,-19.601 1.252,-32.327 0.502,-12.728 1.332,-28.171 2.504,-46.327 -3.342,0 -7.184,0.08 -11.524,0.252 -3.676,0.169 -8.143,0.294 -13.406,0.383 C 12.153,-0.046 6.348,0 0,0" /></g><g
           transform="translate(564.1152,94.9551)"
           id="g256"><path
             id="path258"
             style="fill:#ffffff;fill-opacity:1;fill-rule:nonzero;stroke:none"
             d="m 0,0 v 52.251 c 0,16.207 -0.086,35.173 -0.26,56.904 -0.174,21.724 -0.428,35.985 -0.773,61.331 h 11.899 14.613 c 5.776,0 12.545,0.085 20.307,0.261 0,-17.071 0.082,-26.156 0.256,-45.814 0.167,-16.727 0.299,-35.87 0.389,-57.421 C 46.516,45.953 46.731,23.452 47.075,0 H 35.438 Z" /></g><g
           transform="translate(614.1553,214.5771)"
           id="g260"><path
             id="path262"
             style="fill:#ffffff;fill-opacity:1;fill-rule:nonzero;stroke:none"
             d="m 0,0 c 0.158,2.409 0.241,5.688 0.241,9.828 0,3.448 -0.044,8.018 -0.119,13.707 -0.084,5.693 -0.204,12.762 -0.362,21.213 0,0 79.447,2.83 95.242,3.178 -0.16,-3.623 -0.324,-9.82 -0.481,-14.299 -0.163,-3.972 -0.284,-8.76 -0.362,-14.358 -0.08,-5.606 -0.045,-7.745 0.119,-14.988 H 87.51 c -2.261,0 -4.956,0.04 -8.098,0.129 -3.145,0.086 -6.729,0.129 -10.757,0.129 v -24.313 c 0,-8.97 0.038,-23.292 0.12,-34.414 0.078,-11.125 0.2,-11.275 0.364,-24.724 0.158,-13.45 0.318,-28.453 0.483,-45.009 -3.064,0.173 -6.692,0.261 -10.879,0.261 -3.708,0 -8.26,-0.043 -13.661,-0.131 -5.4,-0.086 -11.723,-0.214 -18.975,-0.388 0.159,10.692 0.244,23.02 0.244,36.99 0,11.899 -0.043,14.075 -0.125,30.801 -0.08,16.725 -0.202,35.605 -0.365,56.644 z" /></g><g
           transform="translate(351.6172,227.0234)"
           id="g264"><path
             id="path266"
             style="fill:#ffffff;fill-opacity:1;fill-rule:nonzero;stroke:none"
             d="m 0,0 c 0.168,2.412 0.26,5.688 0.26,9.827 0,3.448 -0.047,8.021 -0.13,13.71 -0.089,5.691 -0.22,12.761 -0.389,21.213 0,0 76.653,-5.305 94.289,-7.831 C 93.858,33.295 93.695,24.87 93.608,19.268 93.519,13.666 93.564,-0.609 93.737,-7.853 h -7.242 c -2.414,0 -1.733,0.044 -5.098,0.131 -3.36,0.083 -7.201,0.126 -11.507,0.126 v -24.311 c 0,-8.969 0.041,-11.158 0.129,-22.283 0.086,-11.123 0.216,-12.7 0.389,-26.152 0.169,-13.447 0.342,-28.447 0.516,-45.004 -3.275,0.175 -7.155,0.259 -11.638,0.259 -3.97,0 -8.841,-0.04 -14.615,-0.131 -5.779,-0.084 -12.546,-0.213 -20.307,-0.387 0.172,10.687 0.259,23.018 0.259,36.989 0,11.895 -0.041,15.502 -0.127,32.228 -0.091,16.726 -0.22,35.606 -0.389,56.645 z" /></g><g
           transform="translate(714.9248,87.7813)"
           id="g268"><path
             id="path270"
             style="fill:#ffffff;fill-opacity:1;fill-rule:nonzero;stroke:none"
             d="m 0,0 c -0.163,15.001 1.818,35.384 1.661,54.007 -0.16,16.037 -0.355,34.921 -0.597,56.644 -0.237,21.729 -0.517,49.264 -0.835,75.481 4.458,0 63.391,7.021 77.887,7.196 v -22.927 -14.356 c 0,-5.602 0.159,-6.055 0.476,-12.782 -4.459,-0.174 -8.837,-0.257 -13.142,-0.257 -3.662,-0.176 -7.521,-0.262 -11.581,-0.262 -4.064,0 -7.688,-0.087 -10.875,-0.256 -0.159,-3.45 -0.201,-6.594 -0.121,-9.44 0.083,-2.844 0.121,-11.105 0.121,-13.342 v -6.983 c 0.955,0 3.745,-0.045 8.362,-0.131 4.619,-0.09 11.708,0.043 21.267,0.388 V 100.564 86.727 c 0,-5.26 0.076,-5.371 0.237,-11.748 h -8.366 c -2.706,0 -5.814,0.042 -9.31,0.128 -3.508,0.082 -7.25,0.128 -11.235,0.128 v -6.207 c 0,-4.136 0.239,-15.367 0.716,-22.265 2.55,-0.173 5.576,-0.346 9.083,-0.514 2.865,-0.174 6.364,-0.39 10.508,-0.649 4.141,-0.258 8.76,-0.477 13.86,-0.645 C 77.955,42.021 77.879,38.398 77.879,34.09 77.718,30.467 77.64,25.987 77.64,20.642 V -5.378 C 70.627,-5.207 10.036,-0.175 0,0" /></g></g></g></g></svg>