<?xml version="1.0" encoding="UTF-8" standalone="no"?>
<svg
   xmlns:dc="http://purl.org/dc/elements/1.1/"
   xmlns:cc="http://creativecommons.org/ns#"
   xmlns:rdf="http://www.w3.org/1999/02/22-rdf-syntax-ns#"
   xmlns:svg="http://www.w3.org/2000/svg"
   xmlns="http://www.w3.org/2000/svg"
   viewBox="0 0 1564.9067 371.35999"
   height="371.35999"
   width="1564.9067"
   xml:space="preserve"
   id="svg2"
   version="1.1"><metadata
     id="metadata8"><rdf:RDF><cc:Work
         rdf:about=""><dc:format>image/svg+xml</dc:format><dc:type
           rdf:resource="http://purl.org/dc/dcmitype/StillImage" /></cc:Work></rdf:RDF></metadata><defs
     id="defs6" /><g
     transform="matrix(1.3333333,0,0,-1.3333333,0,371.36)"
     id="g10"><g
       transform="scale(0.1)"
       id="g12"><path
         id="path14"
         style="fill:#f8a00e;fill-opacity:1;fill-rule:nonzero;stroke:none"
         d="m 11692.2,938.738 -36.9,77.432 h -11.4 V 905.551 h 11.4 v 84.437 l 30.3,-65.636 h 9.9 l 29.9,65.636 v -82.59 h 11.4 v 108.032 h -11.4 z m -141.6,66.742 h 31.3 v -98.082 h 11.8 v 98.082 h 31.4 v 9.95 h -73.8 z m -4286.99,914.03 134.57,87.75 h -388.25 l 48.3,-73.74 -261.41,-396.74 v 396.74 l 73.74,73.74 h -363.92 l 73.74,-73.74 V 982.238 L 6506.64,908.5 h 364.29 l -73.75,73.738 v 229.712 l 82.59,125 c 0,0 214.6,-362.079 253.68,-429.188 h 275.06 l -101.4,90.699 -307.14,520.259 z m 692.07,-888.59 v 785.72 c 0,46.45 -18.81,68.95 -44.62,68.95 h -221.23 v -790.15 c 0,-40.93 20.65,-64.52 44.25,-64.52 z m 217.54,888.59 V 989.621 c 0,-45.73 -26.19,-81.859 -119.84,-81.859 h -473.43 c -60.09,0 -112.82,29.867 -112.82,82.226 v 929.522 c 0,44.98 19.54,87.75 118.72,87.75 h 472.69 c 66,0 114.68,-28.76 114.68,-87.75 z M 9262.75,907.762 v 0 l -73.74,73.75 c 0,0 0,921.768 0,950.898 v 0 l 73.74,73.75 h -289.44 c -5.11,0.18 -9.69,-3.18 -11.06,-8.12 -18.07,-75.95 -208.69,-654.46 -208.69,-654.46 0,0 -199.47,580.35 -217.17,656.67 -1.3,4.2 -5.19,7.04 -9.58,7.01 h -278.38 l 73.74,-73.74 v 0 0 0 c 0,-53.47 0,-950.532 0,-950.532 l -73.74,-73.75 h 368.71 l -73.74,73.75 v 516.192 l 210.9,-592.52 205.37,593.63 v -516.2 l -73.74,-73.738 h 377.19 z m 578.5,486.328 c -0.47,22.81 -19.34,40.9 -42.14,40.42 -1.2,-0.02 -2.39,-0.1 -3.57,-0.23 h -172.19 v -403.36 h 181.77 c 20.37,0 36.88,16.5 36.88,36.86 z m -40.18,492.97 h -177.72 v -331.84 h 172.19 c 21.3,-1.85 40.07,13.91 41.92,35.21 0.05,0.55 0.09,1.11 0.11,1.66 v 254.05 c 0.37,28.38 -11.79,39.45 -36.5,39.45 z m 202.03,-362.81 c 15.9,0 63.1,-23.97 63.1,-63.05 v -453.52 c 1.2,-53.942 -41.5,-98.711 -95.42,-99.981 -2.11,-0.051 -4.24,-0.031 -6.37,0.063 h -633.08 l 73.74,73.75 v 950.898 0 l -73.74,73.75 h 633.45 c 49.72,-0.45 92.22,-36.21 101.02,-85.18 v -320.41 c -3.1,-36.3 -27.9,-67.09 -62.7,-77.79 z m 654.9,-221.23 -97,339.22 -98.5,-338.11 z m 373.1,-394.891 h -338.5 l 56.8,59.742 -63.1,213.849 h -252.9 l -64.1,-215.329 58.9,-58.993 h -339.9 l 91.1,90.704 272.1,934.678 -64.2,73.74 h 351.4 l -69.7,-73.74 267.7,-934.678 92.9,-90.34 z m 370.9,977.461 h 217.6 l 88.1,-63.79 -45.4,168.86 c -2,9.59 -10.5,16.48 -20.3,16.6 h -704.6 c -9.8,-0.12 -18.2,-7.01 -20.2,-16.6 l -45.4,-168.86 88.1,63.79 h 217.6 V 982.609 l -73.8,-73.738 h 373.5 l -73.7,73.738 z M 1014.32,908.5 v 0 l -73.742,73.738 c 0,2.582 0,921.782 0,950.542 v 0 l 73.742,73.74 H 724.516 c -5.09,-0.03 -9.504,-3.52 -10.696,-8.48 -18.429,-75.95 -208.683,-654.46 -208.683,-654.46 0,0 -197.633,581.09 -217.176,657.41 -1.156,4.14 -4.918,7 -9.219,7.01 L 0,2008 73.7422,1934.25 v 0 c 0,-54.93 0,-949.059 0,-952.012 L 0,908.5 h 368.711 l -73.742,73.738 c 0,3.321 0,512.512 0,512.512 L 504.766,908.5 712.348,1494.75 c 0,0 0,-510.66 0,-513.238 l -73.743,-73.75 h 375.715 z m 556.76,122.42 v 785.72 c 0,46.45 -19.18,68.95 -44.99,68.95 h -221.22 v -790.15 c 0,-40.93 20.65,-64.52 44.24,-64.52 z m 217.17,888.59 V 989.621 c 0,-45.73 -26.18,-81.859 -119.83,-81.859 h -473.43 c -60.1,0 -112.82,29.867 -112.82,82.226 v 929.522 c 0,44.98 19.91,87.75 118.72,87.75 h 473.06 c 65.99,0 114.3,-28.76 114.3,-87.75 z m 539.79,-71.16 c -0.85,21.36 -18.86,37.99 -40.22,37.14 -1.1,-0.04 -2.2,-0.13 -3.29,-0.27 l -146.01,0.37 v -401.53 h 154.12 c 30.24,0 33.93,16.59 33.93,29.5 z m 318.56,-850.991 92.92,-89.597 h -262.15 c -36.87,57.519 -248.51,451.678 -248.51,451.678 H 2140 c 0,0 0,-375.35 0,-377.928 l 73.74,-73.75 h -368.71 l 73.74,73.75 c 0,2.578 0,951.268 0,951.268 l -73.74,73.74 h 585.51 c 87.39,0 110.62,-48.66 110.62,-87.75 v -450.94 c -4.09,-56.29 -51.23,-99.71 -107.67,-99.18 3.32,-7.74 213.11,-371.291 213.11,-371.291 z m 493.71,888.231 h 217.54 l 88.12,-63.79 -45.35,168.86 c -2.06,9.59 -10.48,16.48 -20.28,16.6 h -704.6 c -9.81,-0.12 -18.22,-7.01 -20.29,-16.6 l -45.35,-168.86 88.13,63.79 h 217.54 V 982.609 l -73.75,-73.738 h 372.03 l -73.74,73.738 z m 681.74,-582.94 -98.07,339.59 -98.45,-338.11 z m 373.14,-394.888 h -338.84 v 0 l 56.78,59.738 -63.05,213.48 h -252.57 l -64.52,-215.332 58.99,-58.988 h -338.85 l 91.08,90.699 272.11,936.161 -64.53,73.74 h 351.38 l -69.69,-73.74 267.69,-935.059 92.92,-90.332 z m 745.54,188.048 -80.76,-179.189 c -2.56,-5.422 -8.02,-8.859 -14,-8.859 h -630.13 l 73.74,73.75 v 950.898 l -73.74,73.75 h 365.39 l -73.74,-73.75 v -901.49 h 271.37 z m 1286.79,1689.43 -483,-619.06 h 178.82 V 1.46875 L 6227.52,523.199 Z M 5523.29,0 5219.47,523.199 V 2166.18 h -178.83 l 482.65,619.06 V 0" /></g></g></svg>