<?xml version="1.0" encoding="UTF-8" standalone="no"?>
<svg
   xmlns:dc="http://purl.org/dc/elements/1.1/"
   xmlns:cc="http://creativecommons.org/ns#"
   xmlns:rdf="http://www.w3.org/1999/02/22-rdf-syntax-ns#"
   xmlns:svg="http://www.w3.org/2000/svg"
   xmlns="http://www.w3.org/2000/svg"
   viewBox="0 0 1000 1000"
   height="1000"
   width="1000"
   xml:space="preserve"
   id="svg2"
   version="1.1"><metadata
     id="metadata8"><rdf:RDF><cc:Work
         rdf:about=""><dc:format>image/svg+xml</dc:format><dc:type
           rdf:resource="http://purl.org/dc/dcmitype/StillImage" /></cc:Work></rdf:RDF></metadata><defs
     id="defs6"><clipPath
       id="clipPath18"
       clipPathUnits="userSpaceOnUse"><path
         id="path16"
         d="M 0,750 H 750 V 0 H 0 Z" /></clipPath></defs><g
     transform="matrix(1.3333333,0,0,-1.3333333,0,1000)"
     id="g10"><g
       id="g12"><g
         clip-path="url(#clipPath18)"
         id="g14"><g
           transform="translate(405.6094,314.6523)"
           id="g20"><path
             id="path22"
             style="fill:#000000;fill-opacity:1;fill-rule:nonzero;stroke:none"
             d="M 0,0 C 2.896,8.017 5.612,16.106 8.496,24.123 11.56,16.094 14.587,8.041 17.662,0.012 11.774,0 5.888,0.023 0,0 m 39.752,78.521 c -1.939,-3.625 4.044,-0.119 0,0 m -3.148,2.322 c 1.856,-0.155 3.794,0.084 5.589,-0.562 -0.12,-1.137 -0.383,-3.411 -0.514,-4.559 L 41.26,75.159 40.805,74.692 C 40.146,74.681 38.83,74.668 38.16,74.657 l -0.79,0.466 c -0.466,0.383 -1.399,1.137 -1.866,1.52 l 2.872,0.155 c -0.61,1.353 -1.185,2.705 -1.772,4.045 M 2.142,81.441 c 4.954,0.024 9.921,0 14.874,0.036 C 14.635,74.609 12.289,67.728 9.884,60.872 7.275,67.716 4.69,74.573 2.142,81.441 m -378.371,37.347 c -0.275,2.01 0.862,5.492 3.482,4.535 2.836,-0.024 1.939,-3.123 2.238,-5.014 0.706,-0.263 2.13,-0.802 2.848,-1.065 1.783,-1.819 4.212,-2.309 6.689,-2.094 -0.227,-0.455 -0.658,-1.364 -0.873,-1.819 0.778,-0.131 2.333,-0.407 3.123,-0.55 -0.203,-0.12 -0.622,-0.383 -0.826,-0.515 -2.836,0.299 -7.897,2.226 -8.184,-2.154 -0.719,0.12 -2.166,0.371 -2.896,0.491 -0.324,-3.243 0.813,-6.258 3.063,-8.592 3.016,-2.931 1.412,-7.347 1.424,-11.032 1.029,-1.532 2.094,-3.052 3.171,-4.572 -2.441,-0.502 -4.128,1.197 -5.863,2.561 -0.24,2.597 -0.635,5.17 -0.79,7.766 -1.4,2.154 -3.267,3.901 -5.169,5.577 -4.32,-3.184 -8.293,-6.773 -11.105,-11.369 -0.91,-0.083 -2.728,-0.263 -3.626,-0.359 0.766,0.778 2.321,2.334 3.087,3.112 -1.807,0.754 -3.733,1.244 -5.468,2.154 1.95,0.682 4.259,0.873 5.851,-0.682 2.178,4.834 5.385,9.154 8.101,13.665 -0.084,1.137 -0.179,2.273 -0.299,3.386 -1.256,0.012 -3.769,0.012 -5.026,0.024 0.766,3.59 4.057,5.146 7.048,6.546" /></g><g
           transform="translate(213.5405,423.6519)"
           id="g24"><path
             id="path26"
             style="fill:#000000;fill-opacity:1;fill-rule:nonzero;stroke:none"
             d="m 0,0 c 1.268,0.012 3.805,0.024 5.074,0.036 1.495,-1.915 2.991,-3.817 4.487,-5.732 1.507,1.915 3.015,3.817 4.535,5.732 1.244,-0.012 3.745,-0.036 4.99,-0.048 -2.513,-3.231 -5.074,-6.438 -7.599,-9.669 0,-1.95 0.013,-3.901 0.024,-5.851 -1.292,0 -2.584,-0.012 -3.865,-0.024 -0.012,1.974 -0.012,3.949 0,5.923 C 5.109,-6.402 2.573,-3.183 0,0 M 20.773,0.012 C 22.616,0 24.471,0 26.325,-0.024 c -1.854,-2.286 -3.542,-5.409 -7,-4.774 0.407,1.627 0.885,3.231 1.448,4.81" /></g><g
           transform="translate(673.4961,367.4941)"
           id="g28"><path
             id="path30"
             style="fill:#000000;fill-opacity:1;fill-rule:nonzero;stroke:none"
             d="M 0,0 C 17.268,3.781 34.522,7.623 51.778,11.452 50.761,4.081 49.72,-3.278 48.69,-10.649 c -8.232,-0.084 -16.489,0.191 -24.721,-0.132 -1.389,-7.395 -2.178,-14.898 -3.423,-22.329 10.124,0.012 20.247,0 30.383,0.012 -0.863,-7.263 -1.772,-14.515 -2.645,-21.779 C 29.7,-54.912 11.104,-54.889 -7.479,-54.864 -4.966,-36.58 -2.501,-18.284 0,0 m -237.337,26.23 c 0.264,1.652 1.771,2.274 3.064,2.98 0.442,-17.399 0.071,-34.81 0.191,-52.209 -0.12,-10.255 0.275,-20.522 -0.239,-30.765 -6.259,14.36 -10.961,29.366 -16.681,43.94 4.583,12.014 9.082,24.052 13.665,36.054 M -438.321,15.054 c -4.188,-1.532 -4.248,-6.737 -4.236,-10.483 0.215,-12.779 -0.359,-25.595 0.287,-38.363 0.299,-6.761 9.597,-8.125 13.785,-4.093 2.083,2.453 2.166,5.864 2.238,8.915 -0.036,11.56 0,23.119 -0.024,34.678 -0.083,3.1 -0.347,6.857 -3.159,8.783 -2.68,1.484 -6.043,1.532 -8.891,0.563 m -6.868,12.684 c 10.326,2.812 24.231,2.609 30.932,-7.12 3.004,-4.774 3.446,-10.614 3.47,-16.118 -0.071,-11.571 0.024,-23.143 -0.047,-34.727 -0.192,-6.294 -1.473,-13.222 -6.391,-17.626 -5.36,-4.858 -13.055,-5.671 -19.983,-5.3 -6.199,0.287 -12.864,2.428 -16.597,7.694 -4.511,6.079 -4.356,14.048 -4.296,21.264 0.191,11.559 -0.371,23.154 0.299,34.702 0.407,7.598 5.17,14.922 12.613,17.231 m -44.024,-43.389 c -0.012,-8.317 -0.012,-16.645 0,-24.974 4.368,0.407 10.877,-1.424 13.318,3.435 1.34,5.719 0.934,11.81 0.335,17.614 -1.926,5.564 -9.178,3.458 -13.653,3.925 m 0,32.26 c 0.012,-6.749 0.012,-13.498 0.012,-20.247 4.14,0.503 10.315,-1.424 12.72,3.1 1.148,4.176 0.909,8.699 0.275,12.935 -1.591,5.54 -8.687,3.71 -13.007,4.212 m -15.389,11.978 c 10.662,-0.335 21.456,0.898 31.998,-1.041 6.306,-1.1 11.021,-6.605 11.763,-12.863 0.969,-8.162 1.675,-18.775 -6.402,-23.705 5.217,-2.609 7.455,-8.436 7.455,-14 0.024,-7.515 0.957,-15.736 -3.04,-22.509 -2.8,-4.763 -8.568,-6.474 -13.761,-6.857 -9.333,-0.681 -18.691,-0.203 -28.036,-0.358 0.059,27.115 0,54.219 0.023,81.333 m -48.618,0.024 c 6.175,-0.203 12.397,0.347 18.547,-0.299 3.961,-12.827 7.324,-25.846 11.368,-38.663 0.383,12.984 0.072,25.979 0.168,38.962 4.882,-0.024 9.764,-0.024 14.646,0 0.084,-27.115 0.024,-54.23 0.024,-81.345 -5.037,0.011 -10.075,0.011 -15.125,0 -4.99,16.094 -10.004,32.165 -14.993,48.247 -0.24,-16.082 -0.061,-32.165 -0.096,-48.259 -4.859,0.012 -9.717,0.012 -14.563,0.023 -0.012,27.104 -0.048,54.219 0.024,81.334 M -595.832,4.225 c -0.909,-10.171 -2.98,-20.2 -4.487,-30.299 3.147,0.024 6.306,0.036 9.453,0.048 -1.842,10.04 -2.333,20.39 -4.966,30.251 m -49.504,11.547 c -0.036,-8.089 -0.072,-16.178 0.024,-24.255 4.284,0.43 10.961,-1.64 13.031,3.505 0.778,5.481 0.766,11.177 0,16.657 -1.675,5.517 -8.711,3.794 -13.055,4.093 M -660.76,28.6 c 9.13,-0.192 18.296,0.406 27.414,-0.383 5.637,-0.407 11.679,-2.884 14.228,-8.269 3.566,-7.371 2.657,-15.915 2.357,-23.848 -0.299,-6.246 -3.673,-11.931 -9.094,-15.066 2.394,-9.477 5.074,-18.883 7.527,-28.347 4.739,25.368 9.489,50.736 14.192,76.104 5.684,0.024 11.356,0 17.04,0.024 4.75,-25.428 9.776,-50.808 14.203,-76.285 0.659,25.333 0.144,50.713 0.276,76.057 5.145,0.013 10.29,0 15.436,0.024 -0.024,-27.127 0.012,-54.242 -0.012,-81.357 -9.932,0.048 -19.876,0 -29.82,0.035 -0.861,4.931 -1.807,9.849 -2.74,14.767 -3.949,-0.025 -7.897,-0.012 -11.847,-0.025 -0.945,-4.905 -1.795,-9.836 -2.704,-14.754 -9.453,-0.011 -18.906,0 -28.36,0 -2.812,10.686 -5.732,21.336 -8.531,32.034 -1.377,0.012 -2.764,0.012 -4.141,0.012 0.048,-10.686 0,-21.372 0.012,-32.057 -5.145,0 -10.279,0 -15.425,-0.012 -0.023,27.115 0,54.23 -0.011,81.346 m 343.274,0.047 c 6.222,-0.084 12.444,-0.047 18.667,-0.012 -0.024,-27.151 -0.024,-54.314 0,-81.465 -5.899,0.012 -11.787,0.023 -17.674,0.096 5.456,1.196 10.925,4.223 13.055,9.669 3.171,8.136 2.573,18.188 -3.063,25.128 -6.546,8.304 -16.143,13.438 -23.358,21.061 -3.016,3.063 -3.614,9.417 0.574,11.714 2.896,1.209 6.677,1.341 9.262,-0.658 1.878,-1.998 1.831,-4.966 2.369,-7.491 5.086,0.503 10.171,0.994 15.269,1.4 -0.874,5.433 -1.687,11.404 -5.66,15.58 -2.429,2.765 -6.055,3.89 -9.441,4.978 m -37.61,-0.023 c 7.347,-0.013 14.682,-0.037 22.03,0.011 -2.765,-1.041 -5.469,-2.237 -8.03,-3.709 -1.436,-8.795 -2.883,-17.59 -4.259,-26.398 5.181,-8.77 14.131,-14.084 21.682,-20.557 3.219,-2.669 6.773,-6.019 6.641,-10.567 0.18,-2.895 -0.909,-6.462 -4.116,-7.155 -3.123,-0.551 -7.036,-1.041 -9.633,1.173 -2.417,3.266 -2.01,7.586 -2.405,11.415 -5.169,-0.646 -10.351,-1.244 -15.496,-1.998 0.359,-6.294 0.933,-13.223 5.301,-18.177 2.429,-2.907 6.09,-4.248 9.585,-5.421 -11.847,-0.095 -23.693,-0.059 -35.528,-0.035 -2.513,15.963 -4.966,31.938 -7.598,47.876 -2.549,-15.963 -5.242,-31.913 -7.827,-47.876 -5.276,-0.036 -10.542,-0.036 -15.818,-0.024 -3.794,27.151 -7.862,54.255 -11.584,81.418 4.918,0 9.837,-0.013 14.755,0.011 2.213,-15.795 4.271,-31.626 6.138,-47.469 2.405,15.843 5.146,31.638 7.671,47.469 4.894,0 9.788,0 14.682,0.013 2.369,-15.76 4.547,-31.556 7.024,-47.291 2.19,15.771 4.427,31.543 6.785,47.291 M 7.958,56.218 c 18.607,0.011 37.203,0 55.81,0.011 -1.077,-7.299 -2.274,-14.586 -3.338,-21.886 -10.159,0 -20.307,0 -30.454,0.012 C 29.365,29.246 28.719,24.136 28.253,19.015 19.792,18.691 11.332,18.739 2.884,18.943 4.607,31.364 6.33,43.785 7.958,56.218 m -130.599,0 c 18.595,0.011 37.203,-0.025 55.81,0.024 -1.148,-7.3 -2.166,-14.611 -3.351,-21.899 -10.134,0.012 -20.258,0 -30.393,0 -0.946,-7.574 -1.856,-15.149 -2.645,-22.747 8.244,0.383 16.501,-0.156 24.758,0.215 -0.934,-7.502 -2.106,-14.969 -3.087,-22.46 -8.281,-0.048 -16.561,-0.048 -24.842,-0.025 -1.101,-7.49 -2.166,-14.981 -3.327,-22.472 10.124,0.096 20.247,0.024 30.37,0.048 -0.801,-7.263 -1.758,-14.503 -2.62,-21.755 -18.595,-0.047 -37.179,-0.047 -55.762,-0.011 5.025,37.035 10.135,74.046 15.089,111.082 M -166.82,-54.877 c 5.013,37.048 10.088,74.071 15.101,111.106 8.424,0 16.836,0 25.261,0.013 -5.002,-37.036 -10.04,-74.071 -15.018,-111.106 -8.448,-0.013 -16.896,0.023 -25.344,-0.013 m -38.951,107.565 c 8.592,4.511 18.776,4.678 28.169,3.242 6.415,-1.029 13.164,-4.104 16.071,-10.279 2.968,-6.27 2.74,-13.509 2.046,-20.258 -7.611,0 -15.209,0.024 -22.82,-0.024 -0.155,3.446 1.437,8.304 -2.237,10.422 -3.649,1.412 -8.843,1.161 -11.272,-2.309 -2.058,-3.925 -1.591,-8.951 1.184,-12.421 7.013,-9.657 17.447,-16.478 23.251,-27.08 6.509,-10.434 5.983,-24.112 0.766,-34.941 -4.572,-9.226 -14.982,-13.821 -24.866,-14.252 -9.31,-0.383 -19.852,-0.215 -27.211,6.343 -6.581,6.102 -7.444,16.022 -5.828,24.375 7.527,1.807 15.137,3.255 22.7,4.954 -0.324,-3.901 -1.376,-7.922 -0.454,-11.811 1.543,-4.308 7.072,-3.721 10.685,-3.147 6.354,1.28 6.809,9.549 5.121,14.539 -3.805,7.97 -11.223,13.307 -17.039,19.72 -6.641,7.179 -12.732,16.131 -12.529,26.301 -0.347,10.507 4.81,21.54 14.263,26.626 m -274.827,3.481 c 6.319,0 12.649,-0.011 18.979,0.013 -0.131,-1.017 -0.395,-3.064 -0.527,-4.081 -4.906,-0.012 -9.8,0.012 -14.706,-0.036 0.012,-2.441 0.012,-4.894 0.024,-7.347 4.882,-0.084 9.776,-0.06 14.659,-0.036 0.179,-1.352 0.371,-2.704 0.562,-4.057 -5.11,0.072 -10.219,-0.131 -15.317,0.048 -1.579,-0.155 -2.728,1.089 -3.434,2.322 -0.551,4.356 -0.143,8.783 -0.24,13.174 m -21.036,0.288 c 1.029,-0.18 3.087,-0.562 4.116,-0.754 3.83,-3.003 7.252,-6.51 10.902,-9.728 0.012,3.41 0.012,6.808 0,10.194 h 3.805 c -0.012,-5.169 -0.012,-10.338 0,-15.52 -0.921,-0.011 -2.764,-0.047 -3.674,-0.059 -3.805,3.362 -7.575,6.785 -11.368,10.171 0.012,-3.374 0.012,-6.749 0.036,-10.123 -0.969,-0.013 -2.895,-0.036 -3.865,-0.048 0.012,5.301 -0.036,10.59 0.048,15.867 m -10.805,-4.404 c -0.683,-1.113 -1.353,-2.225 -2.011,-3.338 2.238,0 4.475,0 6.725,-0.012 0,0.849 -0.012,2.537 -0.012,3.386 -1.579,-0.012 -3.147,-0.024 -4.702,-0.036 m -2.573,2.86 c 3.111,2.346 7.455,0.862 11.08,1.256 0,-5.169 -0.024,-10.35 0.024,-15.531 h -3.853 c 0,0.993 0.024,2.991 0.036,3.985 -3.099,0.011 -6.198,0.011 -9.286,-0.037 -0.789,-1.316 -1.567,-2.632 -2.345,-3.948 -1.149,-0.013 -3.446,-0.024 -4.607,-0.036 3.016,4.75 5.517,9.848 8.951,14.311 m -20.486,1.256 h 3.877 c -0.012,-3.829 -0.012,-7.669 0,-11.523 2.991,0.012 5.983,0.024 8.975,0.06 -0.527,-1.005 -1.58,-3.016 -2.106,-4.033 -3.579,-0.083 -7.156,-0.083 -10.734,-0.048 -0.036,5.182 -0.036,10.363 -0.012,15.544 m -66.795,-4.08 c 0.023,-2.465 0.035,-4.93 0.059,-7.395 3.746,-0.024 7.491,-0.024 11.249,-0.048 0.011,2.477 0.011,4.954 0.011,7.431 -3.781,0 -7.55,-0.012 -11.319,0.012 m -3.853,4.08 c 5.265,-0.107 10.554,0.216 15.819,-0.131 3.577,-0.431 3.195,-4.631 3.195,-7.251 -0.18,-2.633 0.765,-6.414 -2.214,-7.814 -4.356,-0.719 -8.819,-0.311 -13.211,-0.264 -1.818,-0.119 -3.302,1.52 -3.458,3.243 -0.323,4.069 -0.072,8.149 -0.131,12.217 m -20.738,-4.08 c 0,1.364 0.012,2.728 0.024,4.08 6.306,0.013 12.624,0.013 18.943,0 v -4.104 c -2.501,0.024 -5.002,0.024 -7.503,0.036 -0.013,-3.817 -0.013,-7.634 0,-11.452 -0.982,0 -2.932,-0.024 -3.913,-0.024 0.023,3.83 0.012,7.659 0.036,11.476 -2.537,0 -5.062,-0.012 -7.587,-0.012 m 571.863,-0.263 c 9.79,5.971 21.827,5.803 32.848,4.583 7.574,-0.897 15.64,-3.949 19.696,-10.817 5.265,-8.054 1.759,-17.974 0.994,-26.757 -7.838,-0.036 -15.688,0 -23.526,0.132 0.406,4.535 2.333,9.585 0.012,13.845 -3.387,2.919 -8.532,2.082 -12.624,1.627 -4.727,-0.574 -7.683,-5.026 -8.186,-9.465 -2.417,-15.999 -4.403,-32.058 -6.7,-48.08 -0.252,-2.693 -0.766,-5.624 0.502,-8.173 1.615,-2.955 5.421,-2.98 8.376,-3.159 3.591,-0.012 8.245,-0.084 10.291,3.505 2.31,4.38 2.86,9.407 3.974,14.168 -5.876,2.119 -11.728,4.261 -17.603,6.343 14.396,3.207 28.826,6.342 43.222,9.597 -1.401,-10.219 -2.417,-20.498 -4.38,-30.634 -1.46,-7.442 -4.715,-15.148 -11.392,-19.325 -8.567,-5.433 -19.145,-4.87 -28.874,-4.798 -7.933,0.023 -16.632,1.759 -22.137,7.957 -6.259,6.929 -6.546,17.016 -5.529,25.799 2.274,16.43 4.536,32.847 6.881,49.253 1.46,9.453 5.768,19.17 14.155,24.399" /></g><g
           transform="translate(390.1494,396.8115)"
           id="g32"><path
             id="path34"
             style="fill:#000000;fill-opacity:1;fill-rule:nonzero;stroke:none"
             d="M 0,0 C 1.663,-0.682 2.896,-1.902 3.314,-3.686 7.729,-15.52 12.241,-27.318 16.704,-39.142 11.068,-53.764 6.174,-68.686 0.096,-83.129 -0.396,-55.439 -0.216,-27.701 0,0 m -146.897,17.076 c -4.727,0.419 -4.727,9.142 -0.036,9.597 5.182,0.335 10.387,0.024 15.58,0.131 -0.12,-1.017 -0.371,-3.063 -0.502,-4.08 -4.871,-0.024 -9.729,0 -14.587,-0.048 0.012,-0.407 0.036,-1.22 0.047,-1.627 4.26,-0.096 8.532,0.251 12.78,-0.24 3.172,-1.759 3.315,-7.55 0.024,-9.214 -5.337,-0.741 -10.769,-0.143 -16.142,-0.335 0.168,1.352 0.347,2.693 0.515,4.033 4.989,0.539 10.494,-1.209 15.149,1.125 -4.236,0.909 -8.568,0.287 -12.828,0.658 m -125.98,9.776 c 6.33,0 12.66,-0.012 18.99,0 -0.132,-1.017 -0.395,-3.063 -0.526,-4.08 -4.882,0 -9.765,0 -14.647,0.012 0,-2.465 0.012,-4.93 0.036,-7.395 4.846,-0.036 9.693,-0.024 14.539,-0.012 0.203,-1.34 0.419,-2.669 0.646,-4.021 -5.037,0.06 -10.063,-0.179 -15.089,0.012 -1.903,-0.143 -3.853,1.352 -3.842,3.315 -0.251,4.056 -0.047,8.113 -0.107,12.169 m -29.185,0.024 c 1.053,-0.012 3.159,-0.024 4.211,-0.036 2.286,-3.901 4.596,-7.79 6.905,-11.679 2.309,3.913 4.643,7.802 6.941,11.715 1.041,-0.012 3.123,-0.036 4.175,-0.047 0.013,-5.17 -0.011,-10.351 0.025,-15.521 h -3.865 c 0.024,2.824 0.035,5.636 0.024,8.46 -1.676,-2.8 -3.327,-5.6 -4.955,-8.412 -1.555,-0.012 -3.099,-0.024 -4.654,-0.036 -1.628,2.812 -3.291,5.6 -4.931,8.388 -0.011,-2.788 -0.011,-5.564 0,-8.364 -0.969,-0.012 -2.919,-0.06 -3.889,-0.084 0.024,5.206 0.024,10.411 0.013,15.616" /></g></g></g></g></svg>