<?xml version="1.0" encoding="UTF-8" standalone="no"?>
<svg
   xmlns:dc="http://purl.org/dc/elements/1.1/"
   xmlns:cc="http://creativecommons.org/ns#"
   xmlns:rdf="http://www.w3.org/1999/02/22-rdf-syntax-ns#"
   xmlns:svg="http://www.w3.org/2000/svg"
   xmlns="http://www.w3.org/2000/svg"
   viewBox="0 0 1706.6667 1066.6667"
   height="1066.6667"
   width="1706.6667"
   xml:space="preserve"
   id="svg2"
   version="1.1"><metadata
     id="metadata8"><rdf:RDF><cc:Work
         rdf:about=""><dc:format>image/svg+xml</dc:format><dc:type
           rdf:resource="http://purl.org/dc/dcmitype/StillImage" /></cc:Work></rdf:RDF></metadata><defs
     id="defs6"><clipPath
       id="clipPath18"
       clipPathUnits="userSpaceOnUse"><path
         id="path16"
         d="M 0,800 H 1280 V 0 H 0 Z" /></clipPath></defs><g
     transform="matrix(1.3333333,0,0,-1.3333333,0,1066.6667)"
     id="g10"><g
       id="g12"><g
         clip-path="url(#clipPath18)"
         id="g14"><g
           transform="translate(157.396,470.9229)"
           id="g20"><path
             id="path22"
             style="fill:#ffffff;fill-opacity:1;fill-rule:nonzero;stroke:none"
             d="M 0,0 -0.815,-5.706 H 0 Z M 3.261,-1.63 2.446,-7.336 H 3.261 Z M 1.63,-0.813 0.815,-6.52 H 1.63 Z M -0.815,0.816 -1.63,1.633 v -5.706 h 0.815 z m 60.325,-30.162 6.522,-4.891 1.631,0.816 7.337,11.413 c -8.968,0.817 -15.49,-7.337 -15.49,-7.337 z M -2.445,1.632 -3.261,-3.259 h 0.816 z m 81.52,-25.272 -6.521,-11.412 0.815,-0.817 13.044,-0.817 c 0,8.968 -7.337,13.044 -7.337,13.044 z m -7.336,-20.38 4.075,-13.043 c 8.153,5.707 9.783,14.674 9.783,14.674 L 72.554,-43.206 Z M -17.935,10.599 -18.75,1.632 h 5.707 v 0.816 h -0.815 v 0.817 h -0.816 l 0.816,1.63 0.815,4.076 -0.815,0.817 v 1.629 l 0.815,0.817 0.815,9.783 -4.076,2.446 c 1.631,6.522 5.706,12.228 5.706,12.228 h -2.445 C -17.119,31.8 -18.75,25.278 -18.75,25.278 c 0,0 -0.815,-10.598 -0.815,-12.228 0,-2.446 1.631,-2.446 1.631,-2.446 z m 259.237,-112.498 c -17.119,0 -34.239,5.706 -46.467,20.379 v -0.816 c -7.337,-9.782 -15.489,-9.782 -18.75,-9.782 -3.26,0 -13.858,4.89 -17.934,9.782 -4.076,4.892 -4.076,13.858 -4.076,13.858 l -16.304,5.707 -20.381,11.413 -3.261,0.816 c -6.521,-3.26 -14.673,-0.816 -22.01,4.892 -0.815,-3.261 -4.891,-11.413 -9.783,-15.489 -4.891,-4.076 -14.673,-9.782 -22.01,-9.782 -7.337,0 -23.641,8.151 -28.533,19.565 -4.891,11.413 0,23.641 0,23.641 l -8.152,1.63 -3.261,4.075 c 0,0 -9.782,-8.152 -20.38,-4.891 -10.598,3.261 -19.565,12.228 -22.01,20.38 -1.631,8.152 0.815,15.489 1.63,16.304 -1.63,5.707 -1.63,8.968 -1.63,8.968 h -0.816 v 2.446 C -33.423,13.86 -45.652,10.6 -58.695,10.6 c -14.674,0 -28.533,4.891 -39.945,12.228 1.63,-17.935 6.521,-39.13 13.043,-62.771 8.968,-32.609 38.315,-43.206 82.336,-50.543 97.01,-15.49 189.944,-89.673 183.422,-135.325 24.457,20.38 50.543,50.542 76.63,95.379 10.598,17.119 0.815,28.533 -15.489,28.533 M 5.707,-0.813 4.076,-1.63 v -6.522 l 1.631,0.817 z m 187.498,-39.946 c 0.815,-0.816 1.63,-0.816 2.445,-1.63 4.892,-3.26 7.337,-4.891 8.153,-12.228 0.815,-5.706 -0.816,-13.859 -4.892,-21.196 22.826,-15.488 54.619,-3.26 66.847,-15.488 -2.445,30.978 -48.097,61.955 -72.553,50.543 z m 117.39,119.021 c -24.456,17.119 -84.782,48.097 -204.617,48.097 -41.576,0 -76.63,-4.076 -104.348,-9.782 C 8.152,105.979 11.413,93.75 11.413,80.708 11.413,62.773 4.892,46.469 -5.707,34.24 -3.261,33.427 0,32.61 4.076,31.794 l 1.631,4.076 c 0,0 1.63,0 2.445,-0.817 0,4.076 2.446,4.076 2.446,4.076 0,0 0,0.817 0.815,0.817 4.076,-0.817 15.489,-6.522 20.38,-8.967 4.892,-2.447 4.892,-3.261 4.892,-3.261 0,0 11.412,0 14.673,0.816 3.261,0 8.968,2.447 17.12,4.892 8.152,2.446 9.782,3.261 11.413,3.261 1.63,0 16.304,-0.817 29.347,-2.447 13.043,-1.63 25.272,-6.521 27.717,-8.152 l 4.076,-0.817 0.816,2.447 -6.522,2.447 c 0,0 0.815,4.075 0.815,4.891 0,0.816 0.816,1.63 1.631,1.63 0.815,0 8.152,-1.63 10.597,-2.447 2.446,-0.813 10.598,-6.521 11.413,-6.521 0.816,0 0.816,-0.817 0.816,-0.817 0,-1.63 -1.631,-4.891 -1.631,-4.891 l -2.445,0.817 2.445,-0.817 c 0,0 2.446,-0.817 3.261,-1.63 0.815,-0.817 3.261,-2.446 5.706,-4.891 2.446,-1.63 1.631,-4.076 1.631,-4.076 l 5.707,-5.706 V 3.26 l 13.858,-13.859 v -0.816 l -6.522,-4.076 c 0,0 8.968,0.817 15.489,-2.446 6.522,-3.261 7.337,-4.892 7.337,-6.522 -1.63,-0.817 -4.076,-1.63 -4.076,-1.63 -4.891,-1.63 -17.119,-9.783 -17.119,-9.783 v -0.816 l 6.521,-1.63 c 7.337,6.522 20.381,8.967 30.163,7.337 33.424,-6.522 56.249,-28.533 61.14,-47.283 0,-0.816 0.816,-2.446 0.816,-3.26 33.423,78.26 30.163,134.509 27.717,159.781 z M -29.347,-114.943 c -10.598,0 -22.826,-4.077 -15.489,-15.489 60.325,-103.532 123.911,-127.988 150.814,-141.031 12.228,5.706 31.793,14.674 55.434,30.978 13.858,8.967 12.228,22.826 8.967,31.793 -17.12,42.391 -110.869,90.488 -199.727,93.75 z M 28.532,5.708 c -2.445,-1.63 -4.891,-6.521 -4.075,-10.598 0.814,-4.076 1.63,-4.076 4.075,-4.076 -4.075,1.63 -3.261,8.153 0,12.228 2.446,3.261 4.892,0.817 4.892,0.817 0,0 -2.446,3.261 -4.892,1.63 z M 8.967,30.979 c 13.044,-1.629 15.49,-4.076 15.49,-4.076 0,0 4.891,0.817 7.336,0.817 -4.076,3.26 -22.01,8.967 -22.01,8.967 0,0 -0.816,-2.446 -0.816,-5.707 z m -5.706,-2.446 9.782,-2.447 c 0.816,0 6.522,0.817 6.522,0.817 L 4.076,30.979 Z M 56.25,-34.238 c -5.707,-10.598 -1.631,-17.935 -1.631,-17.935 l 7.337,10.598 v 1.63 z m 7.336,44.836 2.446,-0.816 c 0,0 1.631,0 1.631,1.63 v 3.26 l -2.446,1.63 -3.261,0.817 c 0.815,-0.817 0.815,-1.63 0.815,-1.63 h 0.815 c 0,0.816 0.816,0.816 0.816,0 0,0 1.63,-0.817 0.815,-3.261 0.815,-0.816 -0.815,-1.63 -1.63,-1.63 z m 123.097,-92.934 -3.261,9.783 h -0.815 l -4.891,-8.968 0.815,-0.816 c 4.076,-1.63 8.152,0 8.152,0 z m -10.598,71.739 c 0,0 -1.63,-3.261 -2.445,-4.076 -0.816,-0.817 -6.522,-1.63 -9.783,-2.447 -3.261,-1.63 -8.967,-4.076 -10.598,-5.706 -0.815,-0.817 -0.815,-3.261 -0.815,-4.076 0,0 1.631,-0.817 2.446,-0.817 l -7.337,-6.521 1.63,-1.63 17.935,-5.707 c 4.076,3.261 9.782,4.076 9.782,4.076 -3.261,1.63 -17.119,7.337 -21.195,8.967 0,0 -2.446,0.817 -2.446,1.63 v 2.446 c 0,0 10.598,8.153 26.902,8.153 l 2.446,4.891 z m 4.076,-52.989 c -4.076,-8.152 -3.261,-13.858 -3.261,-13.858 l 4.077,8.967 v 1.63 c 0.815,0 0,1.63 -0.816,3.261 z m -17.119,18.75 -4.891,1.63 -11.413,-13.043 8.152,-2.446 c 1.631,6.521 8.152,13.859 8.152,13.859 z m 19.565,-14.674 1.63,-2.446 0.816,0.816 6.521,8.153 v 0.816 c -3.261,0 -8.967,-7.337 -8.967,-7.337 z M -8.967,4.892 -9.782,-4.076 h 4.891 l 0.815,5.707 V -1.63 h 0.815 V 3.261 H -4.076 V 6.522 L 3.261,2.446 4.076,0.816 5.707,-0.813 h 1.63 l 0.815,0.816 v 0.816 c -4.891,0 -4.891,2.447 -4.891,2.447 0,0 0.816,5.706 1.631,7.337 0.815,1.629 4.076,0.816 4.076,0.816 L 8.152,12.236 H 6.522 C 4.892,13.052 0,16.312 -1.63,17.127 v 0.816 l 0.815,0.817 v 3.261 H 0 c 0,0.816 0.816,0.816 0.816,1.629 1.63,0 13.858,2.447 13.858,2.447 L 3.261,28.543 v 0.814 C 0,30.173 -2.445,30.987 -4.076,31.803 -8.151,26.912 -9.782,20.39 -9.782,20.39 c 0,0 -0.815,-11.412 -0.815,-13.043 -0.816,-1.63 1.63,-2.447 1.63,-2.447 z m 196.465,-74.184 2.446,-10.598 c 0,0 2.446,2.447 4.891,5.706 2.446,3.262 3.261,6.522 3.261,6.522 l -9.783,-0.817 z m -154.89,58.695 h -1.63 l -4.076,0.817 c -4.076,0.816 -2.445,8.152 -2.445,8.152 l -4.892,-1.63 C 17.935,0.002 10.598,8.97 10.598,8.97 L 8.967,2.448 c 0.816,-0.816 4.891,-7.337 5.707,-8.967 l -2.445,-2.446 c 0,0 -0.816,-1.63 -0.816,-2.447 0,-0.816 -0.815,-1.63 -0.815,-1.63 L 7.337,-14.671 H 6.522 l -11.413,8.967 v -6.522 h 0.815 c 0.815,-1.629 2.446,-4.891 6.522,-6.522 3.261,-1.629 7.337,-1.629 8.967,-0.816 1.63,-0.816 2.445,-0.816 3.261,-1.63 3.261,-1.63 4.076,-0.816 4.076,-0.816 l 4.891,1.63 h 0.816 l 0.814,0.816 1.631,3.261 c 0,0 8.152,-0.817 11.413,-0.817 3.261,4.892 13.859,12.228 21.196,13.044 7.337,0 19.565,-1.63 29.347,-11.413 8.967,-9.782 6.522,-22.826 6.522,-22.826 l 17.934,-5.706 -8.152,5.706 c -6.521,16.304 -22.01,30.978 -22.01,30.978 0,0 -4.076,0.816 -6.522,0.816 -2.445,0.817 -4.076,2.447 -4.076,2.447 0,0 -0.815,0.816 -2.446,3.261 l -1.63,3.261 c 0,0 -1.631,1.63 -4.077,3.26 -2.445,1.63 -11.412,2.447 -16.303,3.262 -4.892,0.816 -4.892,0 -4.892,0 13.859,-3.262 17.935,-4.077 18.75,-4.892 0,0 0.815,-1.63 1.63,-2.446 -11.413,2.446 -22.01,0.816 -24.456,0 1.631,-2.446 1.631,-5.707 0,-8.152 -1.63,-1.63 -6.522,-4.076 -6.522,-4.076 z m 163.042,-42.391 -6.522,-8.967 v -0.817 h 8.968 c 1.631,5.707 -2.446,9.783 -2.446,9.783 z M 57.88,11.414 c 0,0 0.815,0 2.446,-0.817 1.63,0 2.445,1.63 2.445,3.261 0,2.447 -2.445,3.261 -2.445,3.261 H 58.695 L 56.25,16.302 55.434,10.596 h 0.816 l 1.63,0.816 c -0.815,1.63 -0.815,2.447 -0.815,4.076 0,0.817 1.63,2.447 2.445,2.447 0,0 1.631,0 0.816,-3.262 0,-3.26 -2.446,-3.26 -2.446,-3.26 z m 77.445,8.967 c -0.815,1.63 -2.446,1.63 -12.228,3.261 -8.968,0.813 -17.119,1.63 -18.75,1.63 -1.631,0 -2.446,-0.817 -2.446,-0.817 0,0 -4.891,-3.261 -8.967,-5.706 -4.076,-2.446 -4.891,-3.261 -5.706,-4.891 -0.815,-0.816 1.63,-4.077 1.63,-4.077 L 95.38,1.629 C 96.195,1.629 98.641,0 98.641,0 c 0,0 13.043,0.816 21.195,1.629 h 21.196 c 0.815,0 0,3.261 -1.631,7.338 -1.63,3.261 -4.076,11.412 -4.076,11.412 z m -83.152,7.337 c 0,0 5.707,-3.261 6.522,-3.261 0.815,0 12.228,-4.076 17.119,-5.707 4.077,-1.629 6.522,0 7.337,0 0.816,0 14.674,8.152 14.674,8.152 -12.228,4.892 -23.641,8.153 -23.641,8.153 -0.815,0 -22.011,-7.337 -22.011,-7.337 m 92.119,-64.402 -13.858,-12.228 10.597,-3.261 10.598,11.413 -5.707,2.447 z M 69.293,8.153 c 0,0 8.967,0 21.195,-2.446 -8.152,5.706 -21.195,8.967 -21.195,8.967 z M 99.456,-4.075 c 4.891,-5.707 9.782,-13.859 9.782,-13.859 8.152,8.152 25.272,11.413 47.283,10.598 -30.979,6.522 -57.065,3.261 -57.065,3.261 m 46.466,17.119 -4.075,-1.63 4.891,-8.967 16.304,-5.707 c -6.521,13.859 -17.12,16.305 -17.12,16.305 z m -74.999,-71.738 -4.891,12.228 h -1.631 l -8.151,-9.783 c 5.706,-4.891 14.673,-2.446 14.673,-2.446 z m 16.305,50.543 c 0,0 10.597,-0.817 19.564,-12.228 l -4.891,-0.817 -2.445,0.817 c 0,0 -7.337,8.967 -12.228,12.228" /></g><g
           transform="translate(1001.9531,337.2295)"
           id="g24"><path
             id="path26"
             style="fill:#000000;fill-opacity:1;fill-rule:nonzero;stroke:none"
             d="m 0,0 h -69.293 v -35.055 h 22.011 c -2.446,-4.89 -7.337,-13.043 -22.011,-13.043 -16.305,0 -29.348,13.859 -29.348,31.793 0,19.566 14.674,30.979 29.348,31.793 16.304,0.817 22.826,-5.706 27.717,-10.597 l 33.424,31.793 c -16.304,16.304 -35.054,24.457 -61.141,24.457 -41.576,0 -74.999,-33.424 -74.999,-75 0,-41.576 33.424,-74.999 74.999,-74.999 43.206,0 69.293,30.978 69.293,69.293 z m -195.65,-26.087 -9.783,40.761 -9.783,-40.761 z m 8.966,-37.5 h -37.499 l -4.891,-21.195 h -48.098 l 48.098,144.292 h 48.097 l 48.098,-144.292 h -48.098 z m -235.595,224.183 c 0,8.967 -7.337,16.304 -16.304,16.304 h -10.598 v -31.793 h 10.598 c 8.967,0 16.304,6.522 16.304,15.489 m 48.098,8.152 c 0,-20.38 -10.598,-38.315 -28.533,-41.576 l 36.685,-57.065 h -53.804 l -29.348,48.098 V 70.107 h -48.097 V 214.4 h 74.999 c 26.903,0 48.098,-18.75 48.098,-45.652 m 263.312,-42.391 c -4.891,-6.522 -17.935,-10.598 -26.902,-10.598 -14.673,0 -26.902,12.229 -26.902,26.903 0,14.673 12.229,26.901 26.902,26.901 8.967,0 22.011,-4.076 26.902,-10.598 V 214.4 c -6.522,1.63 -19.565,3.261 -26.902,3.261 -41.576,0 -74.999,-33.424 -74.999,-74.999 0,-41.577 33.423,-75 74.999,-75 7.337,0 19.565,0.817 26.902,3.261 z M 89.673,-23.642 c 0,-8.966 -7.337,-16.303 -16.305,-16.303 -8.967,0 -16.304,7.337 -16.304,16.303 V 59.51 H 8.967 v -83.152 c 0,-35.053 28.532,-64.401 64.401,-64.401 35.055,0 64.403,28.532 64.403,64.401 V 59.51 H 89.673 Z m -356.246,165.488 c 0,14.674 -12.229,26.902 -26.903,26.902 -14.673,0 -26.902,-12.228 -26.902,-26.902 0,-14.674 12.229,-26.902 26.902,-26.902 14.674,0 26.903,12.228 26.903,26.902 m 48.096,0 c 0,-41.575 -33.422,-74.999 -74.999,-74.999 -41.575,0 -74.999,33.424 -74.999,74.999 0,41.576 33.424,74.999 74.999,74.999 41.577,0 74.999,-33.423 74.999,-74.999 M 250.27,-48.098 h -53.805 v 16.304 h 42.391 v 37.5 H 196.465 V 22.01 h 53.805 v 37.5 H 148.368 V -84.782 H 250.27 Z m -533.148,0 h -53.804 v 16.304 h 42.391 v 37.5 h -42.391 V 22.01 h 53.804 v 37.5 H -384.779 V -84.782 h 101.901 z m -112.498,0 h -53.805 V 59.51 h -48.097 V -84.782 h 101.902 z M 137.771,107.607 H 83.967 v 16.304 h 42.39 v 36.685 H 83.967 V 176.9 h 53.804 v 37.5 H 35.869 V 70.107 h 101.902 z m 85.596,69.293 h 26.903 v 37.5 H 148.368 V 176.9 H 175.27 V 70.107 h 48.097 z M -52.174,70.107 h -48.097 V 214.4 h 48.097 V 166.302 L -22.826,214.4 H 30.978 L -17.12,141.846 30.978,69.292 h -53.804 l -29.348,48.098 z" /></g><g
           transform="translate(487.5557,550.814)"
           id="g28"><path
             id="path30"
             style="fill:#ffffff;fill-opacity:1;fill-rule:nonzero;stroke:none"
             d="m 0,0 -0.815,8.967 -8.152,5.707 c -34.239,23.641 -99.456,51.358 -216.031,51.358 -44.021,0 -83.966,-4.076 -119.02,-12.228 -12.228,10.598 -28.532,17.119 -45.652,17.119 -38.315,0 -70.108,-30.978 -70.108,-70.108 0,-12.228 3.261,-23.641 8.967,-34.238 1.631,-60.326 20.381,-123.097 57.065,-186.684 60.326,-101.9 124.727,-132.063 155.705,-145.922 2.445,-0.816 4.076,-1.63 5.707,-2.446 l 8.151,-4.076 8.153,4.076 c 1.63,0.816 4.076,1.63 5.706,2.446 31.793,13.859 95.38,44.022 154.074,145.922 C 8.152,-108.423 2.446,-26.902 0,0" /></g><g
           transform="translate(157.396,470.9229)"
           id="g32"><path
             id="path34"
             style="fill:#000000;fill-opacity:1;fill-rule:nonzero;stroke:none"
             d="M 0,0 -0.815,-5.706 H 0 Z M 3.261,-1.63 2.446,-7.336 H 3.261 Z M 1.63,-0.813 0.815,-6.52 H 1.63 Z M -0.815,0.816 -1.63,1.633 v -5.706 h 0.815 z m 60.325,-30.162 6.522,-4.891 1.631,0.816 7.337,11.413 c -8.968,0.817 -15.49,-7.337 -15.49,-7.337 z M -2.445,1.632 -3.261,-3.259 h 0.816 z m 81.52,-25.272 -6.521,-11.412 0.815,-0.817 13.044,-0.817 c 0,8.968 -7.337,13.044 -7.337,13.044 z m -7.336,-20.38 4.075,-13.043 c 8.153,5.707 9.783,14.674 9.783,14.674 L 72.554,-43.206 Z M -17.935,10.599 -18.75,1.632 h 5.707 v 0.816 h -0.815 v 0.817 h -0.816 l 0.816,1.63 0.815,4.076 -0.815,0.817 v 1.629 l 0.815,0.817 0.815,9.783 -4.076,2.446 c 1.631,6.522 5.706,12.228 5.706,12.228 h -2.445 C -17.119,31.8 -18.75,25.278 -18.75,25.278 c 0,0 -0.815,-10.598 -0.815,-12.228 0,-2.446 1.631,-2.446 1.631,-2.446 z m 259.237,-112.498 c -17.119,0 -34.239,5.706 -46.467,20.379 v -0.816 c -7.337,-9.782 -15.489,-9.782 -18.75,-9.782 -3.26,0 -13.858,4.89 -17.934,9.782 -4.076,4.892 -4.076,13.858 -4.076,13.858 l -16.304,5.707 -20.381,11.413 -3.261,0.816 c -6.521,-3.26 -14.673,-0.816 -22.01,4.892 -0.815,-3.261 -4.891,-11.413 -9.783,-15.489 -4.891,-4.076 -14.673,-9.782 -22.01,-9.782 -7.337,0 -23.641,8.151 -28.533,19.565 -4.891,11.413 0,23.641 0,23.641 l -8.152,1.63 -3.261,4.075 c 0,0 -9.782,-8.152 -20.38,-4.891 -10.598,3.261 -19.565,12.228 -22.01,20.38 -1.631,8.152 0.815,15.489 1.63,16.304 -1.63,5.707 -1.63,8.968 -1.63,8.968 h -0.816 v 2.446 C -33.423,13.86 -45.652,10.6 -58.695,10.6 c -14.674,0 -28.533,4.891 -39.945,12.228 1.63,-17.935 6.521,-39.13 13.043,-62.771 8.968,-32.609 38.315,-43.206 82.336,-50.543 97.01,-15.49 189.944,-89.673 183.422,-135.325 24.457,20.38 50.543,50.542 76.63,95.379 10.598,17.119 0.815,28.533 -15.489,28.533 M 5.707,-0.813 4.076,-1.63 v -6.522 l 1.631,0.817 z m 187.498,-39.946 c 0.815,-0.816 1.63,-0.816 2.445,-1.63 4.892,-3.26 7.337,-4.891 8.153,-12.228 0.815,-5.706 -0.816,-13.859 -4.892,-21.196 22.826,-15.488 54.619,-3.26 66.847,-15.488 -2.445,30.978 -48.097,61.955 -72.553,50.543 z m 117.39,119.021 c -24.456,17.119 -84.782,48.097 -204.617,48.097 -41.576,0 -76.63,-4.076 -104.348,-9.782 C 8.152,105.979 11.413,93.75 11.413,80.708 11.413,62.773 4.892,46.469 -5.707,34.24 -3.261,33.427 0,32.61 4.076,31.794 l 1.631,4.076 c 0,0 1.63,0 2.445,-0.817 0,4.076 2.446,4.076 2.446,4.076 0,0 0,0.817 0.815,0.817 4.076,-0.817 15.489,-6.522 20.38,-8.967 4.892,-2.447 4.892,-3.261 4.892,-3.261 0,0 11.412,0 14.673,0.816 3.261,0 8.968,2.447 17.12,4.892 8.152,2.446 9.782,3.261 11.413,3.261 1.63,0 16.304,-0.817 29.347,-2.447 13.043,-1.63 25.272,-6.521 27.717,-8.152 l 4.076,-0.817 0.816,2.447 -6.522,2.447 c 0,0 0.815,4.075 0.815,4.891 0,0.816 0.816,1.63 1.631,1.63 0.815,0 8.152,-1.63 10.597,-2.447 2.446,-0.813 10.598,-6.521 11.413,-6.521 0.816,0 0.816,-0.817 0.816,-0.817 0,-1.63 -1.631,-4.891 -1.631,-4.891 l -2.445,0.817 2.445,-0.817 c 0,0 2.446,-0.817 3.261,-1.63 0.815,-0.817 3.261,-2.446 5.706,-4.891 2.446,-1.63 1.631,-4.076 1.631,-4.076 l 5.707,-5.706 V 3.26 l 13.858,-13.859 v -0.816 l -6.522,-4.076 c 0,0 8.968,0.817 15.489,-2.446 6.522,-3.261 7.337,-4.892 7.337,-6.522 -1.63,-0.817 -4.076,-1.63 -4.076,-1.63 -4.891,-1.63 -17.119,-9.783 -17.119,-9.783 v -0.816 l 6.521,-1.63 c 7.337,6.522 20.381,8.967 30.163,7.337 33.424,-6.522 56.249,-28.533 61.14,-47.283 0,-0.816 0.816,-2.446 0.816,-3.26 33.423,78.26 30.163,134.509 27.717,159.781 z M -29.347,-114.943 c -10.598,0 -22.826,-4.077 -15.489,-15.489 60.325,-103.532 123.911,-127.988 150.814,-141.031 12.228,5.706 31.793,14.674 55.434,30.978 13.858,8.967 12.228,22.826 8.967,31.793 -17.12,42.391 -110.869,90.488 -199.727,93.75 z M 28.532,5.708 c -2.445,-1.63 -4.891,-6.521 -4.075,-10.598 0.814,-4.076 1.63,-4.076 4.075,-4.076 -4.075,1.63 -3.261,8.153 0,12.228 2.446,3.261 4.892,0.817 4.892,0.817 0,0 -2.446,3.261 -4.892,1.63 z M 8.967,30.979 c 13.044,-1.629 15.49,-4.076 15.49,-4.076 0,0 4.891,0.817 7.336,0.817 -4.076,3.26 -22.01,8.967 -22.01,8.967 0,0 -0.816,-2.446 -0.816,-5.707 z m -5.706,-2.446 9.782,-2.447 c 0.816,0 6.522,0.817 6.522,0.817 L 4.076,30.979 Z M 56.25,-34.238 c -5.707,-10.598 -1.631,-17.935 -1.631,-17.935 l 7.337,10.598 v 1.63 z m 7.336,44.836 2.446,-0.816 c 0,0 1.631,0 1.631,1.63 v 3.26 l -2.446,1.63 -3.261,0.817 c 0.815,-0.817 0.815,-1.63 0.815,-1.63 h 0.815 c 0,0.816 0.816,0.816 0.816,0 0,0 1.63,-0.817 0.815,-3.261 0.815,-0.816 -0.815,-1.63 -1.63,-1.63 z m 123.097,-92.934 -3.261,9.783 h -0.815 l -4.891,-8.968 0.815,-0.816 c 4.076,-1.63 8.152,0 8.152,0 z m -10.598,71.739 c 0,0 -1.63,-3.261 -2.445,-4.076 -0.816,-0.817 -6.522,-1.63 -9.783,-2.447 -3.261,-1.63 -8.967,-4.076 -10.598,-5.706 -0.815,-0.817 -0.815,-3.261 -0.815,-4.076 0,0 1.631,-0.817 2.446,-0.817 l -7.337,-6.521 1.63,-1.63 17.935,-5.707 c 4.076,3.261 9.782,4.076 9.782,4.076 -3.261,1.63 -17.119,7.337 -21.195,8.967 0,0 -2.446,0.817 -2.446,1.63 v 2.446 c 0,0 10.598,8.153 26.902,8.153 l 2.446,4.891 z m 4.076,-52.989 c -4.076,-8.152 -3.261,-13.858 -3.261,-13.858 l 4.077,8.967 v 1.63 c 0.815,0 0,1.63 -0.816,3.261 z m -17.119,18.75 -4.891,1.63 -11.413,-13.043 8.152,-2.446 c 1.631,6.521 8.152,13.859 8.152,13.859 z m 19.565,-14.674 1.63,-2.446 0.816,0.816 6.521,8.153 v 0.816 c -3.261,0 -8.967,-7.337 -8.967,-7.337 z M -8.967,4.892 -9.782,-4.076 h 4.891 l 0.815,5.707 V -1.63 h 0.815 V 3.261 H -4.076 V 6.522 L 3.261,2.446 4.076,0.816 5.707,-0.813 h 1.63 l 0.815,0.816 v 0.816 c -4.891,0 -4.891,2.447 -4.891,2.447 0,0 0.816,5.706 1.631,7.337 0.815,1.629 4.076,0.816 4.076,0.816 L 8.152,12.236 H 6.522 C 4.892,13.052 0,16.312 -1.63,17.127 v 0.816 l 0.815,0.817 v 3.261 H 0 c 0,0.816 0.816,0.816 0.816,1.629 1.63,0 13.858,2.447 13.858,2.447 L 3.261,28.543 v 0.814 C 0,30.173 -2.445,30.987 -4.076,31.803 -8.151,26.912 -9.782,20.39 -9.782,20.39 c 0,0 -0.815,-11.412 -0.815,-13.043 -0.816,-1.63 1.63,-2.447 1.63,-2.447 z m 196.465,-74.184 2.446,-10.598 c 0,0 2.446,2.447 4.891,5.706 2.446,3.262 3.261,6.522 3.261,6.522 l -9.783,-0.817 z m -154.89,58.695 h -1.63 l -4.076,0.817 c -4.076,0.816 -2.445,8.152 -2.445,8.152 l -4.892,-1.63 C 17.935,0.002 10.598,8.97 10.598,8.97 L 8.967,2.448 c 0.816,-0.816 4.891,-7.337 5.707,-8.967 l -2.445,-2.446 c 0,0 -0.816,-1.63 -0.816,-2.447 0,-0.816 -0.815,-1.63 -0.815,-1.63 L 7.337,-14.671 H 6.522 l -11.413,8.967 v -6.522 h 0.815 c 0.815,-1.629 2.446,-4.891 6.522,-6.522 3.261,-1.629 7.337,-1.629 8.967,-0.816 1.63,-0.816 2.445,-0.816 3.261,-1.63 3.261,-1.63 4.076,-0.816 4.076,-0.816 l 4.891,1.63 h 0.816 l 0.814,0.816 1.631,3.261 c 0,0 8.152,-0.817 11.413,-0.817 3.261,4.892 13.859,12.228 21.196,13.044 7.337,0 19.565,-1.63 29.347,-11.413 8.967,-9.782 6.522,-22.826 6.522,-22.826 l 17.934,-5.706 -8.152,5.706 c -6.521,16.304 -22.01,30.978 -22.01,30.978 0,0 -4.076,0.816 -6.522,0.816 -2.445,0.817 -4.076,2.447 -4.076,2.447 0,0 -0.815,0.816 -2.446,3.261 l -1.63,3.261 c 0,0 -1.631,1.63 -4.077,3.26 -2.445,1.63 -11.412,2.447 -16.303,3.262 -4.892,0.816 -4.892,0 -4.892,0 13.859,-3.262 17.935,-4.077 18.75,-4.892 0,0 0.815,-1.63 1.63,-2.446 -11.413,2.446 -22.01,0.816 -24.456,0 1.631,-2.446 1.631,-5.707 0,-8.152 -1.63,-1.63 -6.522,-4.076 -6.522,-4.076 z m 163.042,-42.391 -6.522,-8.967 v -0.817 h 8.968 c 1.631,5.707 -2.446,9.783 -2.446,9.783 z M 57.88,11.414 c 0,0 0.815,0 2.446,-0.817 1.63,0 2.445,1.63 2.445,3.261 0,2.447 -2.445,3.261 -2.445,3.261 H 58.695 L 56.25,16.302 55.434,10.596 h 0.816 l 1.63,0.816 c -0.815,1.63 -0.815,2.447 -0.815,4.076 0,0.817 1.63,2.447 2.445,2.447 0,0 1.631,0 0.816,-3.262 0,-3.26 -2.446,-3.26 -2.446,-3.26 z m 77.445,8.967 c -0.815,1.63 -2.446,1.63 -12.228,3.261 -8.968,0.813 -17.119,1.63 -18.75,1.63 -1.631,0 -2.446,-0.817 -2.446,-0.817 0,0 -4.891,-3.261 -8.967,-5.706 -4.076,-2.446 -4.891,-3.261 -5.706,-4.891 -0.815,-0.816 1.63,-4.077 1.63,-4.077 L 95.38,1.629 C 96.195,1.629 98.641,0 98.641,0 c 0,0 13.043,0.816 21.195,1.629 h 21.196 c 0.815,0 0,3.261 -1.631,7.338 -1.63,3.261 -4.076,11.412 -4.076,11.412 z m -83.152,7.337 c 0,0 5.707,-3.261 6.522,-3.261 0.815,0 12.228,-4.076 17.119,-5.707 4.077,-1.629 6.522,0 7.337,0 0.816,0 14.674,8.152 14.674,8.152 -12.228,4.892 -23.641,8.153 -23.641,8.153 -0.815,0 -22.011,-7.337 -22.011,-7.337 m 92.119,-64.402 -13.858,-12.228 10.597,-3.261 10.598,11.413 -5.707,2.447 z M 69.293,8.153 c 0,0 8.967,0 21.195,-2.446 -8.152,5.706 -21.195,8.967 -21.195,8.967 z M 99.456,-4.075 c 4.891,-5.707 9.782,-13.859 9.782,-13.859 8.152,8.152 25.272,11.413 47.283,10.598 -30.979,6.522 -57.065,3.261 -57.065,3.261 m 46.466,17.119 -4.075,-1.63 4.891,-8.967 16.304,-5.707 c -6.521,13.859 -17.12,16.305 -17.12,16.305 z m -74.999,-71.738 -4.891,12.228 h -1.631 l -8.151,-9.783 c 5.706,-4.891 14.673,-2.446 14.673,-2.446 z m 16.305,50.543 c 0,0 10.597,-0.817 19.564,-12.228 l -4.891,-0.817 -2.445,0.817 c 0,0 -7.337,8.967 -12.228,12.228" /></g><g
           transform="translate(98.7012,602.1714)"
           id="g36"><path
             id="path38"
             style="fill:#000000;fill-opacity:1;fill-rule:nonzero;stroke:none"
             d="m 0,0 c 27.914,0 50.543,-22.629 50.543,-50.543 0,-27.914 -22.629,-50.543 -50.543,-50.543 -27.914,0 -50.543,22.629 -50.543,50.543 C -50.543,-22.629 -27.914,0 0,0" /></g></g></g></g></svg>